<svg width="207" height="92" viewBox="0 0 207 92" fill="none" xmlns="http://www.w3.org/2000/svg">
<path d="M192.597 83.9573V73.8225H182.462V69.7036H192.597V59.5688H196.715V69.7036H206.85V73.8225H196.715V83.9573H192.597Z" fill="black"/>
<path d="M121.316 90.7315V52.7939H129.283C135.498 52.7939 140.086 54.4921 143.049 57.8884C146.048 61.2847 147.547 65.9095 147.547 71.7627C147.547 77.6159 146.048 82.2407 143.049 85.637C140.086 89.0333 135.498 90.7315 129.283 90.7315H121.316ZM125.869 86.5584H129.175C132.499 86.5584 135.154 85.9441 137.142 84.7157C139.165 83.4872 140.628 81.771 141.532 79.567C142.435 77.363 142.886 74.7616 142.886 71.7627C142.886 68.7638 142.435 66.1624 141.532 63.9584C140.628 61.7544 139.165 60.0382 137.142 58.8098C135.154 57.5813 132.499 56.9671 129.175 56.9671H125.869V86.5584Z" fill="black"/>
<path d="M103.67 91.3828C100.598 91.3828 97.9608 90.5698 95.7569 88.944C93.5529 87.3181 91.8547 85.0418 90.6624 82.1152C89.5062 79.1525 88.9281 75.7019 88.9281 71.7637C88.9281 67.8254 89.5062 64.3929 90.6624 61.4663C91.8547 58.5036 93.5529 56.2093 95.7569 54.5834C97.9608 52.9575 100.598 52.1445 103.67 52.1445C106.741 52.1445 109.378 52.9575 111.582 54.5834C113.786 56.2093 115.466 58.5036 116.623 61.4663C117.815 64.3929 118.411 67.8254 118.411 71.7637C118.411 75.7019 117.815 79.1525 116.623 82.1152C115.466 85.0418 113.786 87.3181 111.582 88.944C109.378 90.5698 106.741 91.3828 103.67 91.3828ZM103.67 87.1013C106.668 87.1013 109.089 85.7644 110.932 83.0907C112.811 80.417 113.75 76.6413 113.75 71.7637C113.75 66.886 112.811 63.1103 110.932 60.4366C109.089 57.7629 106.668 56.4261 103.67 56.4261C100.635 56.4261 98.1957 57.7629 96.353 60.4366C94.5103 63.1103 93.589 66.886 93.589 71.7637C93.589 76.6413 94.5103 80.417 96.353 83.0907C98.1957 85.7644 100.635 87.1013 103.67 87.1013Z" fill="black"/>
<path d="M73.3407 91.3828C70.2696 91.3828 67.632 90.5698 65.428 88.944C63.224 87.3181 61.5259 85.0418 60.3335 82.1152C59.1773 79.1525 58.5992 75.7019 58.5992 71.7637C58.5992 67.8254 59.1773 64.3929 60.3335 61.4663C61.5259 58.5036 63.224 56.2093 65.428 54.5834C67.632 52.9575 70.2696 52.1445 73.3407 52.1445C76.4118 52.1445 79.0494 52.9575 81.2534 54.5834C83.4574 56.2093 85.1375 58.5036 86.2937 61.4663C87.486 64.3929 88.0821 67.8254 88.0821 71.7637C88.0821 75.7019 87.486 79.1525 86.2937 82.1152C85.1375 85.0418 83.4574 87.3181 81.2534 88.944C79.0494 90.5698 76.4118 91.3828 73.3407 91.3828ZM73.3407 87.1013C76.3396 87.1013 78.7603 85.7644 80.603 83.0907C82.4818 80.417 83.4212 76.6413 83.4212 71.7637C83.4212 66.886 82.4818 63.1103 80.603 60.4366C78.7603 57.7629 76.3396 56.4261 73.3407 56.4261C70.3057 56.4261 67.8668 57.7629 66.0242 60.4366C64.1815 63.1103 63.2601 66.886 63.2601 71.7637C63.2601 76.6413 64.1815 80.417 66.0242 83.0907C67.8668 85.7644 70.3057 87.1013 73.3407 87.1013Z" fill="black"/>
<path d="M31.4679 90.7315V52.7939H36.0204V86.6126H55.2602V90.7315H31.4679Z" fill="black"/>
<path d="M0.000854492 90.7315V52.7939H12.6286C16.5669 52.7939 19.5297 53.6972 21.5169 55.5038C23.5041 57.3103 24.4977 59.6227 24.4977 62.4409C24.4977 64.6449 23.9015 66.4695 22.7092 67.9148C21.5169 69.3239 20.18 70.3175 18.6986 70.8956V71.275C20.4691 71.853 22.0227 72.9008 23.3595 74.4183C24.6964 75.9358 25.3648 77.8869 25.3648 80.2716C25.3648 82.2226 24.877 83.9931 23.9015 85.5828C22.9621 87.1365 21.5711 88.383 19.7284 89.3224C17.9218 90.2618 15.6998 90.7315 13.0622 90.7315H0.000854492ZM4.55336 69.1613H12.3035C14.7242 69.1613 16.5669 68.6374 17.8315 67.5896C19.1322 66.5057 19.7826 64.952 19.7826 62.9287C19.7826 61.0137 19.1503 59.5324 17.8857 58.4846C16.6211 57.4368 14.7062 56.9129 12.1409 56.9129H4.55336V69.1613ZM4.55336 86.5584H12.5744C15.1759 86.5584 17.1811 85.9803 18.5903 84.8241C19.9994 83.6318 20.7039 81.9697 20.7039 79.838C20.7039 77.7063 19.9632 76.0623 18.4819 74.9061C17.0005 73.7138 14.9952 73.1176 12.466 73.1176H4.55336V86.5584Z" fill="black"/>
<path d="M152.512 37.9375V0H164.165C167.091 0 169.494 0.487768 171.373 1.46331C173.288 2.43884 174.715 3.77569 175.654 5.47385C176.594 7.13587 177.063 9.03275 177.063 11.1645C177.063 13.6575 176.413 15.8615 175.112 17.7765C173.848 19.6553 171.897 20.974 169.259 21.7328L177.497 37.9375H172.077L164.436 22.3832H164.165H157.065V37.9375H152.512ZM157.065 18.21H164.002C166.893 18.21 169.006 17.5597 170.343 16.2589C171.716 14.9221 172.403 13.2239 172.403 11.1645C172.403 8.99662 171.734 7.2804 170.397 6.01581C169.097 4.75123 166.947 4.11893 163.948 4.11893H157.065V18.21Z" fill="black"/>
<path d="M122.4 37.9375V0H146.084V4.11893H126.953V16.7467H144.458V20.8656H126.953V33.8186H146.084V37.9375H122.4Z" fill="black"/>
<path d="M101.393 37.9375V4.11893H91.2042V0H116.135V4.11893H105.946V37.9375H101.393Z" fill="black"/>
<path d="M71.0643 37.9375V4.11893H60.8754V0H85.8058V4.11893H75.6168V37.9375H71.0643Z" fill="black"/>
<path d="M31.4136 37.9375V0H55.0974V4.11893H35.9661V16.7467H53.4716V20.8656H35.9661V33.8186H55.0974V37.9375H31.4136Z" fill="black"/>
<path d="M0.000854492 37.9375V0H12.6286C16.5669 0 19.5297 0.903275 21.5169 2.70982C23.5041 4.51637 24.4977 6.82876 24.4977 9.64698C24.4977 11.851 23.9015 13.6756 22.7092 15.1208C21.5169 16.5299 20.18 17.5235 18.6986 18.1016V18.481C20.4691 19.0591 22.0227 20.1069 23.3595 21.6244C24.6964 23.1419 25.3648 25.093 25.3648 27.4776C25.3648 29.4287 24.877 31.1991 23.9015 32.7889C22.9621 34.3425 21.5711 35.589 19.7284 36.5284C17.9218 37.4678 15.6998 37.9375 13.0622 37.9375H0.000854492ZM4.55336 16.3673H12.3035C14.7242 16.3673 16.5669 15.8434 17.8315 14.7956C19.1322 13.7117 19.7826 12.1581 19.7826 10.1347C19.7826 8.2198 19.1503 6.73843 17.8857 5.69063C16.6211 4.64283 14.7062 4.11893 12.1409 4.11893H4.55336V16.3673ZM4.55336 33.7644H12.5744C15.1759 33.7644 17.1811 33.1863 18.5903 32.0301C19.9994 30.8378 20.7039 29.1758 20.7039 27.044C20.7039 24.9123 19.9632 23.2684 18.4819 22.1122C17.0005 20.9198 14.9952 20.3237 12.466 20.3237H4.55336V33.7644Z" fill="black"/>
</svg>
