<svg width="902" height="358" viewBox="0 0 902 358" fill="none" xmlns="http://www.w3.org/2000/svg">
<path d="M0 0.000488281H901.729V178.605H0V0.000488281Z" fill="black"/>
<path d="M0 178.606H723.662V357.21H0V178.606Z" fill="black"/>
<path d="M654.972 307.155V288.447C654.972 287.948 655.221 287.698 655.72 287.698H674.129C674.628 287.698 674.878 287.948 674.878 288.447V307.155C674.878 307.654 674.628 307.903 674.129 307.903H655.72C655.221 307.903 654.972 307.654 654.972 307.155Z" fill="#FFFBEE"/>
<path d="M575.419 269.14C575.419 256.917 578.711 247.139 585.297 239.806C591.882 232.472 601.011 228.805 612.685 228.805C624.409 228.805 633.564 232.497 640.149 239.88C646.734 247.214 650.027 256.967 650.027 269.14C650.027 270.886 649.877 272.358 649.578 273.555C649.428 274.054 649.179 274.304 648.83 274.304H591.657C591.159 274.304 590.909 274.578 590.909 275.127C590.909 281.014 592.88 286.027 596.821 290.168C600.812 294.309 606.1 296.379 612.685 296.379C621.915 296.379 628.4 292.812 632.142 285.678C632.391 285.179 632.741 284.93 633.19 284.93H646.809C646.959 284.93 647.108 284.955 647.258 285.005C647.408 285.054 647.508 285.129 647.557 285.229C647.657 285.329 647.682 285.479 647.632 285.678C645.687 293.111 641.546 298.924 635.21 303.114C628.924 307.305 621.416 309.4 612.685 309.4C601.311 309.4 592.256 305.708 585.521 298.325C578.786 290.941 575.419 281.213 575.419 269.14ZM590.909 262.106C590.909 262.605 591.159 262.854 591.657 262.854H633.339C633.838 262.854 634.088 262.605 634.088 262.106C634.088 259.811 633.664 257.516 632.815 255.221C632.017 252.926 630.795 250.756 629.149 248.711C627.502 246.665 625.257 245.019 622.414 243.772C619.57 242.475 616.327 241.826 612.685 241.826C609.193 241.826 605.975 242.549 603.032 243.996C600.138 245.393 597.844 247.164 596.147 249.309C594.451 251.455 593.154 253.65 592.256 255.895C591.358 258.14 590.909 260.21 590.909 262.106Z" fill="#FFFBEE"/>
<path d="M526.397 241.077V231.125C526.397 230.626 526.647 230.376 527.146 230.376H540.765C541.264 230.376 541.513 230.102 541.513 229.553V218.104C541.513 206.031 548.398 199.994 562.167 199.994H563.14H573.392C573.941 199.994 574.215 200.244 574.215 200.742V212.267C574.215 212.766 573.941 213.015 573.392 213.015H563.29C561.045 213.015 559.274 213.713 557.977 215.11C556.73 216.457 556.106 218.328 556.106 220.723V229.553C556.106 230.102 556.355 230.376 556.854 230.376H573.392C573.941 230.376 574.215 230.626 574.215 231.125V241.077C574.215 241.576 573.941 241.826 573.392 241.826H556.854C556.355 241.826 556.106 242.1 556.106 242.649V307.155C556.106 307.654 555.856 307.903 555.358 307.903H542.337C541.788 307.903 541.513 307.654 541.513 307.155V242.649C541.513 242.1 541.264 241.826 540.765 241.826H527.146C526.647 241.826 526.397 241.576 526.397 241.077Z" fill="#FFFBEE"/>
<path d="M503.043 216.832V200.742C503.043 200.244 503.293 199.994 503.792 199.994H519.881C520.43 199.994 520.704 200.244 520.704 200.742V216.832C520.704 217.38 520.43 217.655 519.881 217.655H503.792C503.293 217.655 503.043 217.38 503.043 216.832ZM504.615 307.155V231.125C504.615 230.626 504.864 230.376 505.363 230.376H518.384C518.883 230.376 519.132 230.626 519.132 231.125V307.155C519.132 307.654 518.883 307.903 518.384 307.903H505.363C504.864 307.903 504.615 307.654 504.615 307.155Z" fill="#FFFBEE"/>
<path d="M473.853 307.155V200.742C473.853 200.244 474.127 199.994 474.676 199.994H487.697C488.196 199.994 488.445 200.244 488.445 200.742V307.155C488.445 307.654 488.196 307.903 487.697 307.903H474.676C474.127 307.903 473.853 307.654 473.853 307.155Z" fill="#FFFBEE"/>
<path d="M393.321 307.155V231.125C393.321 230.626 393.57 230.377 394.069 230.377H405.593C405.942 230.377 406.192 230.626 406.342 231.125L407.913 238.01C408.113 238.409 408.362 238.608 408.661 238.608C409.011 238.558 409.31 238.409 409.559 238.159C412.553 235.166 415.496 232.871 418.39 231.275C421.333 229.628 424.576 228.805 428.118 228.805H435.9C436.449 228.805 436.724 229.055 436.724 229.553V241.078C436.724 241.577 436.449 241.826 435.9 241.826H428.118C423.977 241.826 420.335 242.949 417.192 245.194C414.099 247.389 411.779 250.232 410.233 253.724C408.686 257.167 407.913 260.933 407.913 265.024V307.155C407.913 307.654 407.639 307.903 407.09 307.903H394.069C393.57 307.903 393.321 307.654 393.321 307.155Z" fill="#FFFBEE"/>
<path d="M306.883 269.14C306.883 256.917 310.175 247.139 316.761 239.806C323.346 232.472 332.476 228.805 344.15 228.805C355.873 228.805 365.028 232.497 371.613 239.88C378.198 247.214 381.491 256.967 381.491 269.14C381.491 270.886 381.341 272.358 381.042 273.555C380.892 274.054 380.643 274.304 380.294 274.304H323.122C322.623 274.304 322.373 274.578 322.373 275.127C322.373 281.014 324.344 286.027 328.285 290.168C332.276 294.309 337.564 296.379 344.15 296.379C353.379 296.379 359.864 292.812 363.606 285.678C363.855 285.179 364.205 284.93 364.654 284.93H378.273C378.423 284.93 378.573 284.955 378.722 285.005C378.872 285.054 378.972 285.129 379.022 285.229C379.121 285.329 379.146 285.479 379.096 285.678C377.151 293.111 373.01 298.924 366.674 303.114C360.388 307.305 352.88 309.4 344.15 309.4C332.775 309.4 323.72 305.708 316.985 298.325C310.25 290.941 306.883 281.213 306.883 269.14ZM322.373 262.106C322.373 262.605 322.623 262.854 323.122 262.854H364.803C365.302 262.854 365.552 262.605 365.552 262.106C365.552 259.811 365.128 257.516 364.28 255.221C363.481 252.926 362.259 250.756 360.613 248.711C358.966 246.665 356.721 245.019 353.878 243.772C351.034 242.475 347.791 241.826 344.15 241.826C340.657 241.826 337.44 242.549 334.496 243.996C331.603 245.393 329.308 247.164 327.611 249.309C325.915 251.455 324.618 253.65 323.72 255.895C322.822 258.14 322.373 260.21 322.373 262.106Z" fill="#FFFBEE"/>
<path d="M254.868 241.077V231.125C254.868 230.626 255.117 230.376 255.616 230.376H269.236C269.735 230.376 269.984 230.102 269.984 229.553V208.899C269.984 208.4 270.259 208.151 270.807 208.151H283.828C284.327 208.151 284.577 208.4 284.577 208.899V229.553C284.577 230.102 284.826 230.376 285.325 230.376H301.863C302.412 230.376 302.686 230.626 302.686 231.125V241.077C302.686 241.576 302.412 241.826 301.863 241.826H285.325C284.826 241.826 284.577 242.1 284.577 242.649V287.249C284.577 292.338 287.345 294.882 292.883 294.882H301.863C302.412 294.882 302.686 295.132 302.686 295.63V307.155C302.686 307.654 302.412 307.903 301.863 307.903H290.114H289.216C283.13 307.903 278.44 306.456 275.148 303.563C271.655 300.569 269.934 295.98 269.984 289.793V242.649C269.984 242.1 269.735 241.826 269.236 241.826H255.616C255.117 241.826 254.868 241.576 254.868 241.077Z" fill="#FFFBEE"/>
<path d="M207.418 241.077V231.125C207.418 230.626 207.667 230.376 208.166 230.376H221.786C222.285 230.376 222.534 230.102 222.534 229.553V208.899C222.534 208.4 222.809 208.151 223.357 208.151H236.378C236.877 208.151 237.127 208.4 237.127 208.899V229.553C237.127 230.102 237.376 230.376 237.875 230.376H254.413C254.962 230.376 255.236 230.626 255.236 231.125V241.077C255.236 241.576 254.962 241.826 254.413 241.826H237.875C237.376 241.826 237.127 242.1 237.127 242.649V287.249C237.127 292.338 239.895 294.882 245.433 294.882H254.413C254.962 294.882 255.236 295.132 255.236 295.63V307.155C255.236 307.654 254.962 307.903 254.413 307.903H242.664H241.766C235.68 307.903 230.99 306.456 227.698 303.563C224.205 300.569 222.484 295.98 222.534 289.793V242.649C222.534 242.1 222.285 241.826 221.786 241.826H208.166C207.667 241.826 207.418 241.576 207.418 241.077Z" fill="#FFFBEE"/>
<path d="M134.6 269.14C134.6 256.917 137.892 247.139 144.478 239.806C151.063 232.472 160.192 228.805 171.866 228.805C183.59 228.805 192.745 232.497 199.33 239.88C205.915 247.214 209.208 256.967 209.208 269.14C209.208 270.886 209.058 272.358 208.759 273.555C208.609 274.054 208.36 274.304 208.011 274.304H150.838C150.34 274.304 150.09 274.578 150.09 275.127C150.09 281.014 152.061 286.027 156.002 290.168C159.993 294.309 165.281 296.379 171.866 296.379C181.096 296.379 187.581 292.812 191.323 285.678C191.572 285.179 191.922 284.93 192.371 284.93H205.99C206.14 284.93 206.29 284.955 206.439 285.005C206.589 285.054 206.689 285.129 206.738 285.229C206.838 285.329 206.863 285.479 206.813 285.678C204.868 293.111 200.727 298.924 194.391 303.114C188.105 307.305 180.597 309.4 171.866 309.4C160.492 309.4 151.437 305.708 144.702 298.325C137.967 290.941 134.6 281.213 134.6 269.14ZM150.09 262.106C150.09 262.605 150.34 262.854 150.838 262.854H192.52C193.019 262.854 193.269 262.605 193.269 262.106C193.269 259.811 192.845 257.516 191.996 255.221C191.198 252.926 189.976 250.756 188.33 248.711C186.683 246.665 184.438 245.019 181.595 243.772C178.751 242.475 175.508 241.826 171.866 241.826C168.374 241.826 165.156 242.549 162.213 243.996C159.319 245.393 157.025 247.164 155.328 249.309C153.632 251.455 152.335 253.65 151.437 255.895C150.539 258.14 150.09 260.21 150.09 262.106Z" fill="#FFFBEE"/>
<path d="M47.1142 307.155V200.742C47.1142 200.244 47.3885 199.994 47.9373 199.994H98.8985C107.08 199.994 113.815 202.987 119.103 208.974C124.441 214.911 127.11 222.145 127.11 230.676C127.11 235.415 125.913 239.606 123.518 243.247C121.124 246.889 118.305 249.384 115.062 250.731C114.713 250.88 114.539 251.155 114.539 251.554C114.539 251.903 114.713 252.153 115.062 252.302C118.754 253.799 122.097 257.042 125.09 262.031C128.083 266.969 129.58 272.033 129.58 277.222C129.58 286.301 126.636 293.685 120.75 299.372C114.863 305.059 107.33 307.903 98.1501 307.903H47.9373C47.3885 307.903 47.1142 307.654 47.1142 307.155ZM61.7066 294.134C61.7066 294.633 61.956 294.882 62.4549 294.882H96.0548C101.543 294.882 106.082 293.136 109.674 289.644C113.266 286.102 115.062 281.961 115.062 277.222C115.062 272.582 113.266 268.366 109.674 264.575C106.082 260.783 101.892 258.888 97.1025 258.888H62.4549C61.956 258.888 61.7066 259.137 61.7066 259.636V294.134ZM61.7066 245.043C61.7066 245.592 61.956 245.867 62.4549 245.867H96.0548C100.295 245.717 104.112 244.22 107.504 241.377C110.897 238.483 112.593 234.916 112.593 230.676C112.593 225.787 111.121 221.596 108.178 218.104C105.284 214.611 101.243 212.865 96.0548 212.865H62.4549C61.956 212.865 61.7066 213.115 61.7066 213.614V245.043Z" fill="#FFFBEE"/>
<path d="M836.073 150.884V132.176C836.073 131.677 836.323 131.427 836.822 131.427H855.231C855.729 131.427 855.979 131.677 855.979 132.176V150.884C855.979 151.383 855.729 151.632 855.231 151.632H836.822C836.323 151.632 836.073 151.383 836.073 150.884Z" fill="#FFFBEE"/>
<path d="M758.316 142.053C751.731 134.62 748.438 124.892 748.438 112.869C748.438 100.846 751.731 91.1172 758.316 83.6839C764.951 76.2505 773.806 72.5338 784.882 72.5338C789.571 72.5338 794.036 73.5814 798.277 75.6767C802.517 77.7721 805.361 79.6429 806.808 81.2892C807.207 81.6883 807.556 81.838 807.855 81.7382C808.155 81.5885 808.304 81.3391 808.304 80.9899V44.4715C808.304 43.9726 808.579 43.7231 809.128 43.7231H822.148C822.647 43.7231 822.897 43.9726 822.897 44.4715V150.884C822.897 151.383 822.647 151.632 822.148 151.632H810.624C810.275 151.632 810.026 151.383 809.876 150.884L808.304 144.747C808.005 143.849 807.506 143.75 806.808 144.448C804.663 146.593 801.395 148.589 797.005 150.435C792.614 152.231 788.573 153.129 784.882 153.129C773.806 153.129 764.951 149.437 758.316 142.053ZM769.242 93.1128C765.051 98.1515 762.956 104.737 762.956 112.869C762.956 121 765.051 127.586 769.242 132.625C773.432 137.613 779.145 140.108 786.378 140.108C793.213 140.108 798.576 137.613 802.467 132.625C806.359 127.586 808.304 121 808.304 112.869C808.304 104.737 806.359 98.1515 802.467 93.1128C798.576 88.074 793.213 85.5547 786.378 85.5547C779.145 85.5547 773.432 88.074 769.242 93.1128Z" fill="#FFFBEE"/>
<path d="M666.715 112.869C666.715 100.646 670.082 90.8682 676.817 83.5346C683.552 76.201 692.856 72.5342 704.73 72.5342C716.503 72.5342 725.783 76.2259 732.568 83.6094C739.352 90.9929 742.745 100.746 742.745 112.869C742.745 124.992 739.352 134.745 732.568 142.129C725.783 149.462 716.503 153.129 704.73 153.129C692.856 153.129 683.552 149.462 676.817 142.129C670.082 134.745 666.715 124.992 666.715 112.869ZM687.593 93.188C683.402 98.2268 681.307 104.787 681.307 112.869C681.307 120.951 683.402 127.511 687.593 132.55C691.834 137.589 697.546 140.108 704.73 140.108C711.964 140.108 717.676 137.614 721.866 132.625C726.057 127.586 728.152 121.001 728.152 112.869C728.152 104.737 726.057 98.1519 721.866 93.1132C717.676 88.0745 711.964 85.5551 704.73 85.5551C697.546 85.5551 691.834 88.0994 687.593 93.188Z" fill="#FFFBEE"/>
<path d="M583.345 112.869C583.345 100.646 586.712 90.8682 593.447 83.5346C600.182 76.201 609.487 72.5342 621.36 72.5342C633.134 72.5342 642.413 76.2259 649.198 83.6094C655.983 90.9929 659.375 100.746 659.375 112.869C659.375 124.992 655.983 134.745 649.198 142.129C642.413 149.462 633.134 153.129 621.36 153.129C609.487 153.129 600.182 149.462 593.447 142.129C586.712 134.745 583.345 124.992 583.345 112.869ZM604.223 93.188C600.033 98.2268 597.937 104.787 597.937 112.869C597.937 120.951 600.033 127.511 604.223 132.55C608.464 137.589 614.176 140.108 621.36 140.108C628.594 140.108 634.306 137.614 638.497 132.625C642.687 127.586 644.783 121.001 644.783 112.869C644.783 104.737 642.687 98.1519 638.497 93.1132C634.306 88.0745 628.594 85.5551 621.36 85.5551C614.176 85.5551 608.464 88.0994 604.223 93.188Z" fill="#FFFBEE"/>
<path d="M558.569 150.884V44.4715C558.569 43.9726 558.844 43.7231 559.393 43.7231H572.413C572.912 43.7231 573.162 43.9726 573.162 44.4715V150.884C573.162 151.383 572.912 151.632 572.413 151.632H559.393C558.844 151.632 558.569 151.383 558.569 150.884Z" fill="#FFFBEE"/>
<path d="M474.676 150.884V44.4715C474.676 43.9726 474.925 43.7231 475.424 43.7231H488.445C488.944 43.7231 489.193 43.9726 489.193 44.4715V80.9899C489.193 81.3391 489.368 81.5885 489.717 81.7382C490.066 81.838 490.416 81.6883 490.765 81.2892C492.212 79.6429 495.03 77.7721 499.221 75.6767C503.461 73.5814 507.926 72.5338 512.616 72.5338C523.691 72.5338 532.546 76.2505 539.182 83.6839C545.817 91.1172 549.134 100.846 549.134 112.869C549.134 124.892 545.817 134.62 539.182 142.053C532.596 149.437 523.741 153.129 512.616 153.129C508.974 153.129 504.958 152.231 500.568 150.435C496.178 148.589 492.91 146.593 490.765 144.448C490.565 144.199 490.291 144.099 489.942 144.149C489.592 144.149 489.343 144.348 489.193 144.747L487.697 150.884C487.547 151.383 487.273 151.632 486.874 151.632H475.424C474.925 151.632 474.676 151.383 474.676 150.884ZM495.03 93.1128C491.139 98.1515 489.193 104.737 489.193 112.869C489.193 121 491.139 127.586 495.03 132.625C498.922 137.613 504.285 140.108 511.119 140.108C518.353 140.108 524.065 137.613 528.256 132.625C532.447 127.586 534.542 121 534.542 112.869C534.542 104.737 532.447 98.1515 528.256 93.1128C524.065 88.074 518.353 85.5547 511.119 85.5547C504.285 85.5547 498.922 88.074 495.03 93.1128Z" fill="#FFFBEE"/>
<path d="M393.321 150.884V74.854C393.321 74.3551 393.57 74.1057 394.069 74.1057H405.593C405.942 74.1057 406.192 74.3551 406.342 74.854L407.913 81.7386C408.113 82.1377 408.362 82.3373 408.661 82.3373C409.011 82.2874 409.31 82.1377 409.559 81.8883C412.553 78.895 415.496 76.6001 418.39 75.0037C421.333 73.3573 424.576 72.5342 428.118 72.5342H435.9C436.449 72.5342 436.724 72.7836 436.724 73.2825V84.8068C436.724 85.3056 436.449 85.5551 435.9 85.5551H428.118C423.977 85.5551 420.335 86.6776 417.192 88.9226C414.099 91.1177 411.779 93.9613 410.233 97.4535C408.686 100.896 407.913 104.662 407.913 108.753V150.884C407.913 151.383 407.639 151.632 407.09 151.632H394.069C393.57 151.632 393.321 151.383 393.321 150.884Z" fill="#FFFBEE"/>
<path d="M306.883 112.869C306.883 100.646 310.175 90.8682 316.761 83.5346C323.346 76.201 332.476 72.5342 344.15 72.5342C355.873 72.5342 365.028 76.2259 371.613 83.6094C378.198 90.943 381.491 100.696 381.491 112.869C381.491 114.615 381.341 116.087 381.042 117.284C380.892 117.783 380.643 118.033 380.294 118.033H323.122C322.623 118.033 322.373 118.307 322.373 118.856C322.373 124.743 324.344 129.756 328.285 133.897C332.276 138.038 337.564 140.108 344.15 140.108C353.379 140.108 359.864 136.541 363.606 129.407C363.855 128.908 364.205 128.659 364.654 128.659H378.273C378.423 128.659 378.573 128.684 378.722 128.734C378.872 128.784 378.972 128.858 379.022 128.958C379.121 129.058 379.146 129.208 379.096 129.407C377.151 136.841 373.01 142.653 366.674 146.843C360.388 151.034 352.88 153.129 344.15 153.129C332.775 153.129 323.72 149.437 316.985 142.054C310.25 134.67 306.883 124.942 306.883 112.869ZM322.373 105.835C322.373 106.334 322.623 106.583 323.122 106.583H364.803C365.302 106.583 365.552 106.334 365.552 105.835C365.552 103.54 365.128 101.245 364.28 98.9502C363.481 96.6553 362.259 94.4851 360.613 92.4397C358.966 90.3943 356.721 88.748 353.878 87.5007C351.034 86.2036 347.791 85.5551 344.15 85.5551C340.657 85.5551 337.44 86.2785 334.496 87.7252C331.603 89.1221 329.308 90.8932 327.611 93.0384C325.915 95.1836 324.618 97.3787 323.72 99.6237C322.822 101.869 322.373 103.939 322.373 105.835Z" fill="#FFFBEE"/>
<path d="M254.868 84.8058V74.8531C254.868 74.3542 255.117 74.1047 255.616 74.1047H269.236C269.735 74.1047 269.984 73.8303 269.984 73.2816V52.6277C269.984 52.1288 270.259 51.8794 270.807 51.8794H283.828C284.327 51.8794 284.577 52.1288 284.577 52.6277V73.2816C284.577 73.8303 284.826 74.1047 285.325 74.1047H301.863C302.412 74.1047 302.686 74.3542 302.686 74.8531V84.8058C302.686 85.3047 302.412 85.5542 301.863 85.5542H285.325C284.826 85.5542 284.577 85.8285 284.577 86.3773V130.978C284.577 136.066 287.345 138.611 292.883 138.611H301.863C302.412 138.611 302.686 138.86 302.686 139.359V150.883C302.686 151.382 302.412 151.632 301.863 151.632H290.114H289.216C283.13 151.632 278.44 150.185 275.148 147.291C271.655 144.298 269.934 139.708 269.984 133.522V86.3773C269.984 85.8285 269.735 85.5542 269.236 85.5542H255.616C255.117 85.5542 254.868 85.3047 254.868 84.8058Z" fill="#FFFBEE"/>
<path d="M207.418 84.8058V74.8531C207.418 74.3542 207.667 74.1047 208.166 74.1047H221.786C222.285 74.1047 222.534 73.8303 222.534 73.2816V52.6277C222.534 52.1288 222.809 51.8794 223.357 51.8794H236.378C236.877 51.8794 237.127 52.1288 237.127 52.6277V73.2816C237.127 73.8303 237.376 74.1047 237.875 74.1047H254.413C254.962 74.1047 255.236 74.3542 255.236 74.8531V84.8058C255.236 85.3047 254.962 85.5542 254.413 85.5542H237.875C237.376 85.5542 237.127 85.8285 237.127 86.3773V130.978C237.127 136.066 239.895 138.611 245.433 138.611H254.413C254.962 138.611 255.236 138.86 255.236 139.359V150.883C255.236 151.382 254.962 151.632 254.413 151.632H242.664H241.766C235.68 151.632 230.99 150.185 227.698 147.291C224.205 144.298 222.484 139.708 222.534 133.522V86.3773C222.534 85.8285 222.285 85.5542 221.786 85.5542H208.166C207.667 85.5542 207.418 85.3047 207.418 84.8058Z" fill="#FFFBEE"/>
<path d="M134.6 112.869C134.6 100.646 137.892 90.8682 144.478 83.5346C151.063 76.201 160.192 72.5342 171.866 72.5342C183.59 72.5342 192.745 76.2259 199.33 83.6094C205.915 90.943 209.208 100.696 209.208 112.869C209.208 114.615 209.058 116.087 208.759 117.284C208.609 117.783 208.36 118.033 208.011 118.033H150.838C150.34 118.033 150.09 118.307 150.09 118.856C150.09 124.743 152.061 129.756 156.002 133.897C159.993 138.038 165.281 140.108 171.866 140.108C181.096 140.108 187.581 136.541 191.323 129.407C191.572 128.908 191.922 128.659 192.371 128.659H205.99C206.14 128.659 206.29 128.684 206.439 128.734C206.589 128.784 206.689 128.858 206.738 128.958C206.838 129.058 206.863 129.208 206.813 129.407C204.868 136.841 200.727 142.653 194.391 146.843C188.105 151.034 180.597 153.129 171.866 153.129C160.492 153.129 151.437 149.437 144.702 142.054C137.967 134.67 134.6 124.942 134.6 112.869ZM150.09 105.835C150.09 106.334 150.34 106.583 150.838 106.583H192.52C193.019 106.583 193.269 106.334 193.269 105.835C193.269 103.54 192.845 101.245 191.996 98.9502C191.198 96.6553 189.976 94.4851 188.33 92.4397C186.683 90.3943 184.438 88.748 181.595 87.5007C178.751 86.2036 175.508 85.5551 171.866 85.5551C168.374 85.5551 165.156 86.2785 162.213 87.7252C159.319 89.1221 157.025 90.8932 155.328 93.0384C153.632 95.1836 152.335 97.3787 151.437 99.6237C150.539 101.869 150.09 103.939 150.09 105.835Z" fill="#FFFBEE"/>
<path d="M47.1142 150.884V44.4715C47.1142 43.9726 47.3885 43.7231 47.9373 43.7231H98.8985C107.08 43.7231 113.815 46.7165 119.103 52.7031C124.441 58.6398 127.11 65.8737 127.11 74.4046C127.11 79.144 125.913 83.3346 123.518 86.9765C121.124 90.6184 118.305 93.1128 115.062 94.4598C114.713 94.6094 114.539 94.8838 114.539 95.2829C114.539 95.6322 114.713 95.8816 115.062 96.0313C118.754 97.5279 122.097 100.771 125.09 105.76C128.083 110.698 129.58 115.762 129.58 120.951C129.58 130.03 126.636 137.414 120.75 143.101C114.863 148.788 107.33 151.632 98.1501 151.632H47.9373C47.3885 151.632 47.1142 151.383 47.1142 150.884ZM61.7066 137.863C61.7066 138.362 61.956 138.611 62.4549 138.611H96.0548C101.543 138.611 106.082 136.865 109.674 133.373C113.266 129.831 115.062 125.69 115.062 120.951C115.062 116.311 113.266 112.095 109.674 108.304C106.082 104.512 101.892 102.617 97.1025 102.617H62.4549C61.956 102.617 61.7066 102.866 61.7066 103.365V137.863ZM61.7066 88.7725C61.7066 89.3213 61.956 89.5956 62.4549 89.5956H96.0548C100.295 89.446 104.112 87.9493 107.504 85.1057C110.897 82.2121 112.593 78.6451 112.593 74.4046C112.593 69.5155 111.121 65.3249 108.178 61.8327C105.284 58.3405 101.243 56.5944 96.0548 56.5944H62.4549C61.956 56.5944 61.7066 56.8438 61.7066 57.3427V88.7725Z" fill="#FFFBEE"/>
</svg>
