<svg width="1289" height="365" viewBox="0 0 1289 365" fill="none" xmlns="http://www.w3.org/2000/svg">
<path d="M1214.08 218.99C1212.4 218.99 1210.96 218.419 1209.76 217.276C1208.56 216.133 1207.96 214.718 1207.96 213.03C1207.96 211.398 1208.56 210.01 1209.76 208.867C1210.96 207.724 1212.4 207.152 1214.08 207.152C1215.77 207.152 1217.21 207.724 1218.41 208.867C1219.61 210.01 1220.21 211.398 1220.21 213.03C1220.21 214.718 1219.61 216.133 1218.41 217.276C1217.21 218.419 1215.77 218.99 1214.08 218.99Z" fill="#FFFBEE"/>
<path d="M1150.93 218.827V161.679H1186.6V167.884H1157.79V186.906H1184.15V193.11H1157.79V212.622H1186.6V218.827H1150.93Z" fill="#FFFBEE"/>
<path d="M1105.65 218.827V161.679H1141.33V168.047H1112.51V187.967H1137.16V194.09H1112.51V218.827H1105.65Z" fill="#FFFBEE"/>
<path d="M1060.62 218.827V212.867H1073.6V167.639H1060.62V161.679H1093.44V167.639H1080.45V212.867H1093.44V218.827H1060.62Z" fill="#FFFBEE"/>
<path d="M1013.95 218.827V161.679H1020.81V212.622H1049.79V218.827H1013.95Z" fill="#FFFBEE"/>
<path d="M922.169 218.827V161.679H939.722C944.131 161.679 947.75 162.414 950.58 163.883C953.465 165.353 955.614 167.367 957.03 169.925C958.445 172.428 959.152 175.286 959.152 178.497C959.152 182.252 958.172 185.572 956.213 188.457C954.308 191.287 951.369 193.274 947.396 194.417L959.805 218.827H951.641L940.13 195.396H939.722H929.027V218.827H922.169ZM929.027 189.11H939.477C943.831 189.11 947.015 188.13 949.029 186.171C951.097 184.157 952.131 181.599 952.131 178.497C952.131 175.231 951.124 172.646 949.111 170.741C947.151 168.836 943.913 167.884 939.395 167.884H929.027V189.11Z" fill="#FFFBEE"/>
<path d="M876.81 218.827V161.679H912.487V167.884H883.668V186.906H910.037V193.11H883.668V212.622H912.487V218.827H876.81Z" fill="#FFFBEE"/>
<path d="M845.166 218.827V167.884H829.817V161.679H867.372V167.884H852.023V218.827H845.166Z" fill="#FFFBEE"/>
<path d="M799.479 218.827V167.884H784.131V161.679H821.685V167.884H806.337V218.827H799.479Z" fill="#FFFBEE"/>
<path d="M739.751 218.827V161.679H775.428V167.884H746.609V186.906H772.979V193.11H746.609V212.622H775.428V218.827H739.751Z" fill="#FFFBEE"/>
<path d="M692.433 218.827V161.679H711.455C717.387 161.679 721.85 163.04 724.844 165.761C727.837 168.482 729.334 171.966 729.334 176.211C729.334 179.531 728.436 182.28 726.64 184.457C724.843 186.579 722.83 188.076 720.598 188.947V189.518C723.265 190.389 725.605 191.967 727.619 194.253C729.633 196.539 730.64 199.478 730.64 203.07C730.64 206.009 729.905 208.676 728.436 211.071C727.021 213.411 724.925 215.289 722.149 216.704C719.428 218.119 716.081 218.827 712.108 218.827H692.433ZM699.29 186.334H710.965C714.611 186.334 717.387 185.545 719.292 183.967C721.251 182.334 722.231 179.994 722.231 176.946C722.231 174.061 721.279 171.83 719.374 170.251C717.469 168.673 714.584 167.884 710.72 167.884H699.29V186.334ZM699.29 212.541H711.373C715.292 212.541 718.312 211.67 720.435 209.928C722.558 208.132 723.619 205.628 723.619 202.417C723.619 199.206 722.503 196.73 720.272 194.988C718.04 193.192 715.02 192.294 711.21 192.294H699.29V212.541Z" fill="#FFFBEE"/>
<path d="M620.164 218.99C618.476 218.99 617.034 218.419 615.837 217.276C614.639 216.133 614.041 214.718 614.041 213.03C614.041 211.398 614.639 210.01 615.837 208.867C617.034 207.724 618.476 207.152 620.164 207.152C621.851 207.152 623.293 207.724 624.49 208.867C625.688 210.01 626.286 211.398 626.286 213.03C626.286 214.718 625.688 216.133 624.49 217.276C623.293 218.419 621.851 218.99 620.164 218.99Z" fill="#FFFBEE"/>
<path d="M555.374 218.827V161.679H567.375C576.736 161.679 583.648 164.237 588.111 169.353C592.628 174.469 594.887 181.436 594.887 190.253C594.887 199.07 592.628 206.037 588.111 211.153C583.648 216.269 576.736 218.827 567.375 218.827H555.374ZM562.231 212.541H567.211C572.218 212.541 576.219 211.615 579.212 209.765C582.26 207.914 584.464 205.329 585.825 202.009C587.186 198.689 587.866 194.77 587.866 190.253C587.866 185.736 587.186 181.817 585.825 178.497C584.464 175.177 582.26 172.592 579.212 170.741C576.219 168.891 572.218 167.965 567.211 167.965H562.231V212.541Z" fill="#FFFBEE"/>
<path d="M528.791 219.807C524.165 219.807 520.192 218.582 516.872 216.133C513.552 213.684 510.994 210.255 509.198 205.846C507.456 201.383 506.585 196.186 506.585 190.253C506.585 184.321 507.456 179.15 509.198 174.742C510.994 170.279 513.552 166.823 516.872 164.373C520.192 161.924 524.165 160.7 528.791 160.7C533.418 160.7 537.391 161.924 540.711 164.373C544.031 166.823 546.562 170.279 548.303 174.742C550.099 179.15 550.997 184.321 550.997 190.253C550.997 196.186 550.099 201.383 548.303 205.846C546.562 210.255 544.031 213.684 540.711 216.133C537.391 218.582 533.418 219.807 528.791 219.807ZM528.791 213.357C533.309 213.357 536.955 211.343 539.731 207.316C542.561 203.288 543.976 197.601 543.976 190.253C543.976 182.906 542.561 177.218 539.731 173.191C536.955 169.163 533.309 167.149 528.791 167.149C524.22 167.149 520.546 169.163 517.77 173.191C514.994 177.218 513.606 182.906 513.606 190.253C513.606 197.601 514.994 203.288 517.77 207.316C520.546 211.343 524.22 213.357 528.791 213.357Z" fill="#FFFBEE"/>
<path d="M483.105 219.807C478.479 219.807 474.505 218.582 471.185 216.133C467.865 213.684 465.307 210.255 463.511 205.846C461.77 201.383 460.899 196.186 460.899 190.253C460.899 184.321 461.77 179.15 463.511 174.742C465.307 170.279 467.865 166.823 471.185 164.373C474.505 161.924 478.479 160.7 483.105 160.7C487.731 160.7 491.704 161.924 495.024 164.373C498.344 166.823 500.875 170.279 502.617 174.742C504.413 179.15 505.311 184.321 505.311 190.253C505.311 196.186 504.413 201.383 502.617 205.846C500.875 210.255 498.344 213.684 495.024 216.133C491.704 218.582 487.731 219.807 483.105 219.807ZM483.105 213.357C487.622 213.357 491.269 211.343 494.045 207.316C496.875 203.288 498.29 197.601 498.29 190.253C498.29 182.906 496.875 177.218 494.045 173.191C491.269 169.163 487.622 167.149 483.105 167.149C478.533 167.149 474.859 169.163 472.084 173.191C469.308 177.218 467.92 182.906 467.92 190.253C467.92 197.601 469.308 203.288 472.084 207.316C474.859 211.343 478.533 213.357 483.105 213.357Z" fill="#FFFBEE"/>
<path d="M420.029 218.827V161.679H426.887V212.622H455.869V218.827H420.029Z" fill="#FFFBEE"/>
<path d="M372.629 218.827V161.679H391.651C397.583 161.679 402.046 163.04 405.04 165.761C408.033 168.482 409.53 171.966 409.53 176.211C409.53 179.531 408.632 182.28 406.836 184.457C405.04 186.579 403.026 188.076 400.795 188.947V189.518C403.461 190.389 405.802 191.967 407.816 194.253C409.829 196.539 410.836 199.478 410.836 203.07C410.836 206.009 410.101 208.676 408.632 211.071C407.217 213.411 405.121 215.289 402.346 216.704C399.624 218.119 396.277 218.827 392.304 218.827H372.629ZM379.487 186.334H391.161C394.808 186.334 397.583 185.545 399.488 183.967C401.448 182.334 402.427 179.994 402.427 176.946C402.427 174.061 401.475 171.83 399.57 170.251C397.665 168.673 394.78 167.884 390.916 167.884H379.487V186.334ZM379.487 212.541H391.569C395.488 212.541 398.509 211.67 400.631 209.928C402.754 208.132 403.815 205.628 403.815 202.417C403.815 199.206 402.699 196.73 400.468 194.988C398.237 193.192 395.216 192.294 391.406 192.294H379.487V212.541Z" fill="#FFFBEE"/>
<path d="M282.562 218.827V161.679H300.114C304.523 161.679 308.142 162.414 310.973 163.883C313.857 165.353 316.007 167.367 317.422 169.925C318.837 172.428 319.545 175.286 319.545 178.497C319.545 182.252 318.565 185.572 316.606 188.457C314.701 191.287 311.762 193.274 307.789 194.417L320.198 218.827H312.034L300.523 195.396H300.114H289.42V218.827H282.562ZM289.42 189.11H299.87C304.224 189.11 307.408 188.13 309.421 186.171C311.49 184.157 312.524 181.599 312.524 178.497C312.524 175.231 311.517 172.646 309.503 170.741C307.544 168.836 304.305 167.884 299.788 167.884H289.42V189.11Z" fill="#FFFBEE"/>
<path d="M237.203 218.827V161.679H272.879V167.884H244.06V186.906H270.43V193.11H244.06V212.622H272.879V218.827H237.203Z" fill="#FFFBEE"/>
<path d="M205.559 218.827V167.884H190.21V161.679H227.765V167.884H212.416V218.827H205.559Z" fill="#FFFBEE"/>
<path d="M159.872 218.827V167.884H144.524V161.679H182.078V167.884H166.73V218.827H159.872Z" fill="#FFFBEE"/>
<path d="M100.144 218.827V161.679H135.82V167.884H107.001V186.906H133.371V193.11H107.001V212.622H135.82V218.827H100.144Z" fill="#FFFBEE"/>
<path d="M52.8252 218.827V161.679H71.8472C77.7797 161.679 82.2426 163.04 85.2361 165.761C88.2295 168.482 89.7263 171.966 89.7263 176.211C89.7263 179.531 88.8282 182.28 87.0322 184.457C85.2361 186.579 83.2223 188.076 80.9908 188.947V189.518C83.6577 190.389 85.9981 191.967 88.0118 194.253C90.0256 196.539 91.0325 199.478 91.0325 203.07C91.0325 206.009 90.2977 208.676 88.8282 211.071C87.4131 213.411 85.3177 215.289 82.542 216.704C79.8207 218.119 76.4734 218.827 72.5003 218.827H52.8252ZM59.6829 186.334H71.3574C75.0039 186.334 77.7797 185.545 79.6846 183.967C81.6439 182.334 82.6236 179.994 82.6236 176.946C82.6236 174.061 81.6712 171.83 79.7662 170.251C77.8613 168.673 74.9767 167.884 71.1124 167.884H59.6829V186.334ZM59.6829 212.541H71.7656C75.6843 212.541 78.7049 211.67 80.8275 209.928C82.9502 208.132 84.0115 205.628 84.0115 202.417C84.0115 199.206 82.8957 196.73 80.6643 194.988C78.4328 193.192 75.4121 192.294 71.6023 192.294H59.6829V212.541Z" fill="#FFFBEE"/>
<path d="M0 16.2199V11.7864C0 11.6062 0.0901103 11.5161 0.270331 11.5161H10.8403C11.0205 11.5161 11.1106 11.417 11.1106 11.2187V0.270331C11.1106 0.0901103 11.2007 0 11.3809 0H16.0306C16.2289 0 16.328 0.0901103 16.328 0.270331V11.2187C16.328 11.417 16.4181 11.5161 16.5983 11.5161H27.79C27.9702 11.5161 28.0604 11.6062 28.0604 11.7864V16.2199C28.0604 16.4001 27.9702 16.4902 27.79 16.4902H16.5983C16.4181 16.4902 16.328 16.5803 16.328 16.7605V27.736C16.328 27.9162 16.2289 28.0063 16.0306 28.0063H11.3809C11.2007 28.0063 11.1106 27.9162 11.1106 27.736V16.7605C11.1106 16.5803 11.0205 16.4902 10.8403 16.4902H0.270331C0.0901103 16.4902 0 16.4001 0 16.2199Z" fill="#FFFBEE"/>
<path d="M0 352.911V348.478C0 348.298 0.0901103 348.208 0.270331 348.208H10.8403C11.0205 348.208 11.1106 348.108 11.1106 347.91V336.962C11.1106 336.782 11.2007 336.691 11.3809 336.691H16.0306C16.2289 336.691 16.328 336.782 16.328 336.962V347.91C16.328 348.108 16.4181 348.208 16.5983 348.208H27.79C27.9702 348.208 28.0604 348.298 28.0604 348.478V352.911C28.0604 353.091 27.9702 353.182 27.79 353.182H16.5983C16.4181 353.182 16.328 353.272 16.328 353.452V364.427C16.328 364.608 16.2289 364.698 16.0306 364.698H11.3809C11.2007 364.698 11.1106 364.608 11.1106 364.427V353.452C11.1106 353.272 11.0205 353.182 10.8403 353.182H0.270331C0.0901103 353.182 0 353.091 0 352.911Z" fill="#FFFBEE"/>
<path d="M1260.12 16.2199V11.7864C1260.12 11.6062 1260.21 11.5161 1260.39 11.5161H1270.96C1271.15 11.5161 1271.24 11.417 1271.24 11.2187V0.270331C1271.24 0.0901103 1271.33 0 1271.51 0H1276.16C1276.35 0 1276.45 0.0901103 1276.45 0.270331V11.2187C1276.45 11.417 1276.54 11.5161 1276.72 11.5161H1287.91C1288.09 11.5161 1288.18 11.6062 1288.18 11.7864V16.2199C1288.18 16.4001 1288.09 16.4902 1287.91 16.4902H1276.72C1276.54 16.4902 1276.45 16.5803 1276.45 16.7605V27.736C1276.45 27.9162 1276.35 28.0063 1276.16 28.0063H1271.51C1271.33 28.0063 1271.24 27.9162 1271.24 27.736V16.7605C1271.24 16.5803 1271.15 16.4902 1270.96 16.4902H1260.39C1260.21 16.4902 1260.12 16.4001 1260.12 16.2199Z" fill="#FFFBEE"/>
<path d="M1260.12 352.911V348.478C1260.12 348.298 1260.22 348.208 1260.4 348.208H1270.97C1271.15 348.208 1271.24 348.108 1271.24 347.91V336.962C1271.24 336.782 1271.33 336.691 1271.51 336.691H1276.16C1276.35 336.691 1276.45 336.782 1276.45 336.962V347.91C1276.45 348.108 1276.54 348.208 1276.72 348.208H1287.92C1288.1 348.208 1288.19 348.298 1288.19 348.478V352.911C1288.19 353.091 1288.1 353.182 1287.92 353.182H1276.72C1276.54 353.182 1276.45 353.272 1276.45 353.452V364.427C1276.45 364.608 1276.35 364.698 1276.16 364.698H1271.51C1271.33 364.698 1271.24 364.608 1271.24 364.427V353.452C1271.24 353.272 1271.15 353.182 1270.97 353.182H1260.4C1260.22 353.182 1260.12 353.091 1260.12 352.911Z" fill="#FFFBEE"/>
<path d="M1225.83 21.8892L62.3653 21.8891L62.3653 6.11764L1225.83 6.11774L1225.83 21.8892Z" fill="#FE091B"/>
<path d="M1225.83 21.8892L62.3653 21.8891L62.3653 6.11764L1225.83 6.11774L1225.83 21.8892Z" fill="url(#paint0_linear_8426_1547)"/>
<defs>
<linearGradient id="paint0_linear_8426_1547" x1="1225.83" y1="14.0034" x2="62.3654" y2="14.0033" gradientUnits="userSpaceOnUse">
<stop offset="0.100962" stop-color="#FFFBEE"/>
<stop offset="0.5" stop-color="#FF9D00"/>
<stop offset="0.754808" stop-color="#FE091B"/>
<stop offset="0.980769" stop-color="#BA000E"/>
</linearGradient>
</defs>
</svg>
