<svg width="396" height="395" viewBox="0 0 396 395" fill="none" xmlns="http://www.w3.org/2000/svg">
<path d="M0 228.664V166.163C0 163.622 1.27036 162.352 3.81107 162.352H152.824C155.365 162.352 156.635 160.954 156.635 158.159V3.81107C156.635 1.27036 157.905 0 160.446 0H225.996C228.791 0 230.189 1.27036 230.189 3.81107V158.159C230.189 160.954 231.459 162.352 234 162.352H391.778C394.319 162.352 395.589 163.622 395.589 166.163V228.664C395.589 231.205 394.319 232.475 391.778 232.475H234C231.459 232.475 230.189 233.746 230.189 236.286V391.016C230.189 393.557 228.791 394.827 225.996 394.827H160.446C157.905 394.827 156.635 393.557 156.635 391.016V236.286C156.635 233.746 155.365 232.475 152.824 232.475H3.81107C1.27036 232.475 0 231.205 0 228.664Z" fill="#FFFBEE"/>
</svg>
