<svg width="396" height="395" viewBox="0 0 396 395" fill="none" xmlns="http://www.w3.org/2000/svg">
<path d="M0 228.451V166.008C0 163.469 1.26917 162.2 3.80752 162.2H152.681C155.22 162.2 156.489 160.804 156.489 158.012V3.80752C156.489 1.26917 157.758 0 160.296 0H225.786C228.578 0 229.974 1.26917 229.974 3.80752V158.012C229.974 160.804 231.243 162.2 233.782 162.2H391.413C393.951 162.2 395.22 163.469 395.22 166.008V228.451C395.22 230.989 393.951 232.259 391.413 232.259H233.782C231.243 232.259 229.974 233.528 229.974 236.066V390.651C229.974 393.19 228.578 394.459 225.786 394.459H160.296C157.758 394.459 156.489 393.19 156.489 390.651V236.066C156.489 233.528 155.22 232.259 152.681 232.259H3.80752C1.26917 232.259 0 230.989 0 228.451Z" fill="black"/>
</svg>
