<svg width="210" height="205" viewBox="0 0 210 205" fill="none" xmlns="http://www.w3.org/2000/svg">
<path d="M147.832 0C132.437 0 117.681 5.74791 106.353 16.1681L104.572 17.8152L102.79 16.1681C91.4288 5.74791 76.7061 0 61.3111 0C27.4959 0 0 27.4959 0 61.3111V65.4456C0 81.9834 6.18487 97.7818 17.4118 109.916L104.605 204.068L130.925 175.631L115.395 161.244L104.605 172.908L32.9749 95.5297C25.3782 87.328 21.1765 76.6389 21.1765 65.4456V61.3111C21.1765 39.1598 39.1934 21.1765 61.3111 21.1765C71.3952 21.1765 81.0423 24.9412 88.4709 31.7648L104.572 46.5547L120.673 31.7648C128.101 24.9412 137.748 21.1765 147.832 21.1765C169.984 21.1765 187.967 39.1934 187.967 61.3111V65.4456C187.967 71.3279 186.824 77.0758 184.538 82.5212L204.068 90.6893C207.429 82.6557 209.143 74.1515 209.143 65.4792V61.3447C209.143 27.5295 181.648 0.0336143 147.832 0.0336143V0Z" fill="white"/>
<path d="M205.679 115.195H175.226V136.372H205.679V115.195Z" fill="white"/>
<path d="M145.783 115.194H107.026V136.371H145.783V175.127H166.959V136.337H145.884V115.194H166.959V76.4714H145.783V115.194Z" fill="white"/>
</svg>
