<svg width="223" height="258" viewBox="0 0 223 258" fill="none" xmlns="http://www.w3.org/2000/svg">
<path d="M185.04 34.4524L167.998 56.9062L185.409 70.1164L202.451 47.6625L185.04 34.4524Z" fill="black"/>
<path d="M149.715 0.000732422H72.5049V21.8495H149.715V0.000732422Z" fill="black"/>
<path d="M222.316 136.841H201.072C196.4 91.3618 157.845 55.7315 111.156 55.7315C64.4665 55.7315 27.2227 90.1517 21.5084 134.522H0.163818C5.97896 78.4542 53.5421 34.5549 111.156 34.5549C168.769 34.5549 217.576 79.6643 222.316 136.841Z" fill="black"/>
<path d="M222.085 158.116C216.101 214.048 168.639 257.746 111.16 257.746C53.6807 257.746 4.84035 212.771 0 155.729H21.2437C26.0168 201.107 64.5043 236.57 111.16 236.57C157.815 236.57 194.858 202.351 200.74 158.116H222.085Z" fill="black"/>
<path d="M194.991 158.148H200.739V158.047H194.957V158.148H194.991Z" fill="black"/>
<path d="M201.074 136.841H156.166L124.065 98.6558L86.6868 159.093L60.3338 134.521H21.5102C21.006 138.353 20.7371 142.219 20.7371 146.152C20.7371 149.379 20.9051 152.572 21.2412 155.732H51.9977L91.1238 192.202L126.687 134.689L146.317 158.051H200.738C201.275 154.152 201.544 150.185 201.544 146.152C201.544 143.026 201.41 139.9 201.074 136.841Z" fill="black"/>
<path d="M222.082 158.047V158.115H200.738V158.047H222.082Z" fill="black"/>
</svg>
