<svg width="1289" height="33" viewBox="0 0 1289 33" fill="none" xmlns="http://www.w3.org/2000/svg">
<path d="M0 18.2625V14.536C0 14.3845 0.075742 14.3087 0.227226 14.3087H9.11176C9.26325 14.3087 9.33899 14.2254 9.33899 14.0588V4.85613C9.33899 4.70465 9.41473 4.62891 9.56621 4.62891H13.4745C13.6411 4.62891 13.7245 4.70465 13.7245 4.85613V14.0588C13.7245 14.2254 13.8002 14.3087 13.9517 14.3087H23.3588C23.5103 14.3087 23.5861 14.3845 23.5861 14.536V18.2625C23.5861 18.414 23.5103 18.4897 23.3588 18.4897H13.9517C13.8002 18.4897 13.7245 18.5654 13.7245 18.7169V27.9423C13.7245 28.0938 13.6411 28.1695 13.4745 28.1695H9.56621C9.41473 28.1695 9.33899 28.0938 9.33899 27.9423V18.7169C9.33899 18.5654 9.26325 18.4897 9.11176 18.4897H0.227226C0.075742 18.4897 0 18.414 0 18.2625Z" fill="#FFFBEE"/>
<path d="M1264.6 18.2625V14.536C1264.6 14.3845 1264.67 14.3087 1264.82 14.3087H1273.71C1273.86 14.3087 1273.94 14.2254 1273.94 14.0588V4.85613C1273.94 4.70465 1274.01 4.62891 1274.16 4.62891H1278.07C1278.24 4.62891 1278.32 4.70465 1278.32 4.85613V14.0588C1278.32 14.2254 1278.4 14.3087 1278.55 14.3087H1287.96C1288.11 14.3087 1288.18 14.3845 1288.18 14.536V18.2625C1288.18 18.414 1288.11 18.4897 1287.96 18.4897H1278.55C1278.4 18.4897 1278.32 18.5654 1278.32 18.7169V27.9423C1278.32 28.0938 1278.24 28.1695 1278.07 28.1695H1274.16C1274.01 28.1695 1273.94 28.0938 1273.94 27.9423V18.7169C1273.94 18.5654 1273.86 18.4897 1273.71 18.4897H1264.82C1264.67 18.4897 1264.6 18.414 1264.6 18.2625Z" fill="#FFFBEE"/>
<path d="M959.191 32.1379C958.261 32.1379 957.465 31.8228 956.805 31.1927C956.145 30.5625 955.815 29.7823 955.815 28.8521C955.815 27.9519 956.145 27.1867 956.805 26.5566C957.465 25.9264 958.261 25.6113 959.191 25.6113C960.121 25.6113 960.916 25.9264 961.576 26.5566C962.236 27.1867 962.567 27.9519 962.567 28.8521C962.567 29.7823 962.236 30.5625 961.576 31.1927C960.916 31.8228 960.121 32.1379 959.191 32.1379Z" fill="#FFFBEE"/>
<path d="M924.371 32.0477V0.540039H944.04V3.96087H928.151V14.4484H942.69V17.8693H928.151V28.6269H944.04V32.0477H924.371Z" fill="#FFFBEE"/>
<path d="M899.407 32.0477V0.540039H919.077V4.05089H903.188V15.0336H916.781V18.4094H903.188V32.0477H899.407Z" fill="#FFFBEE"/>
<path d="M874.578 32.0477V28.7619H881.735V3.82584H874.578V0.540039H892.673V3.82584H885.516V28.7619H892.673V32.0477H874.578Z" fill="#FFFBEE"/>
<path d="M848.85 32.0477V0.540039H852.631V28.6269H868.609V32.0477H848.85Z" fill="#FFFBEE"/>
<path d="M798.248 32.0477V0.540039H807.925C810.356 0.540039 812.351 0.945138 813.911 1.75534C815.502 2.56553 816.687 3.6758 817.467 5.08615C818.247 6.46648 818.638 8.04186 818.638 9.8123C818.638 11.8828 818.097 13.7132 817.017 15.3036C815.967 16.864 814.346 17.9593 812.156 18.5894L818.998 32.0477H814.497L808.15 19.1296H807.925H802.028V32.0477H798.248ZM802.028 15.6637H807.79C810.19 15.6637 811.946 15.1236 813.056 14.0433C814.196 12.9331 814.767 11.5227 814.767 9.8123C814.767 8.01186 814.211 6.58651 813.101 5.53625C812.021 4.486 810.235 3.96087 807.745 3.96087H802.028V15.6637Z" fill="#FFFBEE"/>
<path d="M773.239 32.0477V0.540039H792.909V3.96087H777.02V14.4484H791.559V17.8693H777.02V28.6269H792.909V32.0477H773.239Z" fill="#FFFBEE"/>
<path d="M755.792 32.0477V3.96087H747.33V0.540039H768.035V3.96087H759.573V32.0477H755.792Z" fill="#FFFBEE"/>
<path d="M730.604 32.0477V3.96087H722.142V0.540039H742.847V3.96087H734.385V32.0477H730.604Z" fill="#FFFBEE"/>
<path d="M697.674 32.0477V0.540039H717.344V3.96087H701.455V14.4484H715.993V17.8693H701.455V28.6269H717.344V32.0477H697.674Z" fill="#FFFBEE"/>
<path d="M671.584 32.0477V0.540039H682.072C685.343 0.540039 687.803 1.29022 689.454 2.79059C691.104 4.29095 691.929 6.21142 691.929 8.55199C691.929 10.3824 691.434 11.8978 690.444 13.0981C689.454 14.2684 688.344 15.0936 687.113 15.5737V15.8888C688.584 16.3689 689.874 17.2391 690.984 18.4994C692.094 19.7597 692.65 21.3801 692.65 23.3606C692.65 24.981 692.244 26.4513 691.434 27.7717C690.654 29.062 689.499 30.0972 687.968 30.8774C686.468 31.6576 684.623 32.0477 682.432 32.0477H671.584ZM675.365 14.1333H681.802C683.812 14.1333 685.343 13.6982 686.393 12.828C687.473 11.9278 688.013 10.6375 688.013 8.95709C688.013 7.3667 687.488 6.1364 686.438 5.26619C685.388 4.39598 683.797 3.96087 681.667 3.96087H675.365V14.1333ZM675.365 28.5819H682.027C684.188 28.5819 685.853 28.1017 687.023 27.1415C688.194 26.1513 688.779 24.7709 688.779 23.0005C688.779 21.2301 688.164 19.8647 686.933 18.9045C685.703 17.9143 684.038 17.4191 681.937 17.4191H675.365V28.5819Z" fill="#FFFBEE"/>
<path d="M631.74 32.1379C630.81 32.1379 630.015 31.8228 629.355 31.1927C628.694 30.5625 628.364 29.7823 628.364 28.8521C628.364 27.9519 628.694 27.1867 629.355 26.5566C630.015 25.9264 630.81 25.6113 631.74 25.6113C632.67 25.6113 633.466 25.9264 634.126 26.5566C634.786 27.1867 635.116 27.9519 635.116 28.8521C635.116 29.7823 634.786 30.5625 634.126 31.1927C633.466 31.8228 632.67 32.1379 631.74 32.1379Z" fill="#FFFBEE"/>
<path d="M596.019 32.0477V0.540039H602.636C607.797 0.540039 611.608 1.95038 614.068 4.77107C616.559 7.59176 617.804 11.4327 617.804 16.2939C617.804 21.1551 616.559 24.996 614.068 27.8167C611.608 30.6374 607.797 32.0477 602.636 32.0477H596.019ZM599.8 28.5819H602.546C605.306 28.5819 607.512 28.0717 609.162 27.0515C610.843 26.0312 612.058 24.6059 612.808 22.7755C613.558 20.945 613.933 18.7845 613.933 16.2939C613.933 13.8033 613.558 11.6427 612.808 9.8123C612.058 7.98185 610.843 6.5565 609.162 5.53625C607.512 4.51601 605.306 4.00588 602.546 4.00588H599.8V28.5819Z" fill="#FFFBEE"/>
<path d="M581.363 32.5879C578.812 32.5879 576.622 31.9128 574.791 30.5624C572.961 29.2121 571.551 27.3216 570.56 24.8911C569.6 22.4305 569.12 19.5648 569.12 16.294C569.12 13.0232 569.6 10.1725 570.56 7.74188C571.551 5.28128 572.961 3.37582 574.791 2.02549C576.622 0.675163 578.812 0 581.363 0C583.914 0 586.104 0.675163 587.935 2.02549C589.765 3.37582 591.16 5.28128 592.121 7.74188C593.111 10.1725 593.606 13.0232 593.606 16.294C593.606 19.5648 593.111 22.4305 592.121 24.8911C591.16 27.3216 589.765 29.2121 587.935 30.5624C586.104 31.9128 583.914 32.5879 581.363 32.5879ZM581.363 29.0321C583.854 29.0321 585.864 27.9218 587.395 25.7012C588.955 23.4807 589.735 20.3449 589.735 16.294C589.735 12.243 588.955 9.10721 587.395 6.88667C585.864 4.66613 583.854 3.55586 581.363 3.55586C578.842 3.55586 576.817 4.66613 575.287 6.88667C573.756 9.10721 572.991 12.243 572.991 16.294C572.991 20.3449 573.756 23.4807 575.287 25.7012C576.817 27.9218 578.842 29.0321 581.363 29.0321Z" fill="#FFFBEE"/>
<path d="M556.174 32.5879C553.623 32.5879 551.433 31.9128 549.603 30.5624C547.772 29.2121 546.362 27.3216 545.371 24.8911C544.411 22.4305 543.931 19.5648 543.931 16.294C543.931 13.0232 544.411 10.1725 545.371 7.74188C546.362 5.28128 547.772 3.37582 549.603 2.02549C551.433 0.675163 553.623 0 556.174 0C558.725 0 560.915 0.675163 562.746 2.02549C564.576 3.37582 565.972 5.28128 566.932 7.74188C567.922 10.1725 568.417 13.0232 568.417 16.294C568.417 19.5648 567.922 22.4305 566.932 24.8911C565.972 27.3216 564.576 29.2121 562.746 30.5624C560.915 31.9128 558.725 32.5879 556.174 32.5879ZM556.174 29.0321C558.665 29.0321 560.675 27.9218 562.206 25.7012C563.766 23.4807 564.546 20.3449 564.546 16.294C564.546 12.243 563.766 9.10721 562.206 6.88667C560.675 4.66613 558.665 3.55586 556.174 3.55586C553.654 3.55586 551.628 4.66613 550.098 6.88667C548.567 9.10721 547.802 12.243 547.802 16.294C547.802 20.3449 548.567 23.4807 550.098 25.7012C551.628 27.9218 553.654 29.0321 556.174 29.0321Z" fill="#FFFBEE"/>
<path d="M521.398 32.0477V0.540039H525.179V28.6269H541.158V32.0477H521.398Z" fill="#FFFBEE"/>
<path d="M495.265 32.0477V0.540039H505.752C509.023 0.540039 511.484 1.29022 513.134 2.79059C514.784 4.29095 515.61 6.21142 515.61 8.55199C515.61 10.3824 515.114 11.8978 514.124 13.0981C513.134 14.2684 512.024 15.0936 510.793 15.5737V15.8888C512.264 16.3689 513.554 17.2391 514.664 18.4994C515.775 19.7597 516.33 21.3801 516.33 23.3606C516.33 24.981 515.925 26.4513 515.114 27.7717C514.334 29.062 513.179 30.0972 511.649 30.8774C510.148 31.6576 508.303 32.0477 506.112 32.0477H495.265ZM499.046 14.1333H505.482C507.493 14.1333 509.023 13.6982 510.073 12.828C511.154 11.9278 511.694 10.6375 511.694 8.95709C511.694 7.3667 511.169 6.1364 510.118 5.26619C509.068 4.39598 507.478 3.96087 505.347 3.96087H499.046V14.1333ZM499.046 28.5819H505.707C507.868 28.5819 509.533 28.1017 510.703 27.1415C511.874 26.1513 512.459 24.7709 512.459 23.0005C512.459 21.2301 511.844 19.8647 510.613 18.9045C509.383 17.9143 507.718 17.4191 505.617 17.4191H499.046V28.5819Z" fill="#FFFBEE"/>
<path d="M445.608 32.0477V0.540039H455.285C457.716 0.540039 459.711 0.945138 461.272 1.75534C462.862 2.56553 464.047 3.6758 464.828 5.08615C465.608 6.46648 465.998 8.04186 465.998 9.8123C465.998 11.8828 465.458 13.7132 464.377 15.3036C463.327 16.864 461.707 17.9593 459.516 18.5894L466.358 32.0477H461.857L455.51 19.1296H455.285H449.389V32.0477H445.608ZM449.389 15.6637H455.15C457.551 15.6637 459.306 15.1236 460.417 14.0433C461.557 12.9331 462.127 11.5227 462.127 9.8123C462.127 8.01186 461.572 6.58651 460.462 5.53625C459.381 4.486 457.596 3.96087 455.105 3.96087H449.389V15.6637Z" fill="#FFFBEE"/>
<path d="M420.599 32.0477V0.540039H440.269V3.96087H424.38V14.4484H438.919V17.8693H424.38V28.6269H440.269V32.0477H420.599Z" fill="#FFFBEE"/>
<path d="M403.153 32.0477V3.96087H394.691V0.540039H415.396V3.96087H406.934V32.0477H403.153Z" fill="#FFFBEE"/>
<path d="M377.964 32.0477V3.96087H369.502V0.540039H390.207V3.96087H381.745V32.0477H377.964Z" fill="#FFFBEE"/>
<path d="M345.034 32.0477V0.540039H364.703V3.96087H348.815V14.4484H363.353V17.8693H348.815V28.6269H364.703V32.0477H345.034Z" fill="#FFFBEE"/>
<path d="M318.945 32.0477V0.540039H329.432C332.703 0.540039 335.164 1.29022 336.814 2.79059C338.465 4.29095 339.29 6.21142 339.29 8.55199C339.29 10.3824 338.795 11.8978 337.804 13.0981C336.814 14.2684 335.704 15.0936 334.474 15.5737V15.8888C335.944 16.3689 337.234 17.2391 338.345 18.4994C339.455 19.7597 340.01 21.3801 340.01 23.3606C340.01 24.981 339.605 26.4513 338.795 27.7717C338.014 29.062 336.859 30.0972 335.329 30.8774C333.828 31.6576 331.983 32.0477 329.792 32.0477H318.945ZM322.726 14.1333H329.162C331.173 14.1333 332.703 13.6982 333.753 12.828C334.834 11.9278 335.374 10.6375 335.374 8.95709C335.374 7.3667 334.849 6.1364 333.798 5.26619C332.748 4.39598 331.158 3.96087 329.027 3.96087H322.726V14.1333ZM322.726 28.5819H329.387C331.548 28.5819 333.213 28.1017 334.384 27.1415C335.554 26.1513 336.139 24.7709 336.139 23.0005C336.139 21.2301 335.524 19.8647 334.294 18.9045C333.063 17.9143 331.398 17.4191 329.297 17.4191H322.726V28.5819Z" fill="#FFFBEE"/>
</svg>
