<svg width="178" height="91" viewBox="0 0 178 91" fill="none" xmlns="http://www.w3.org/2000/svg">
<path d="M133.998 90.8409C132.878 90.8409 131.921 90.4615 131.126 89.7028C130.331 88.944 129.934 88.0046 129.934 86.8846C129.934 85.8006 130.331 84.8793 131.126 84.1205C131.921 83.3618 132.878 82.9824 133.998 82.9824C135.118 82.9824 136.076 83.3618 136.871 84.1205C137.666 84.8793 138.063 85.8006 138.063 86.8846C138.063 88.0046 137.666 88.944 136.871 89.7028C136.076 90.4615 135.118 90.8409 133.998 90.8409Z" fill="#FFFBEE"/>
<path d="M92.0713 90.732V52.7944H115.755V56.9134H96.6238V69.5411H114.129V73.6601H96.6238V86.613H115.755V90.732H92.0713Z" fill="#FFFBEE"/>
<path d="M62.0134 90.732V52.7944H85.6973V57.0218H66.5659V70.2457H82.9333V74.3104H66.5659V90.732H62.0134Z" fill="#FFFBEE"/>
<path d="M32.1182 90.732V86.7756H40.7354V56.7508H32.1182V52.7944H53.9052V56.7508H45.2879V86.7756H53.9052V90.732H32.1182Z" fill="#FFFBEE"/>
<path d="M1.13916 90.732V52.7944H5.69166V86.613H24.9314V90.732H1.13916Z" fill="#FFFBEE"/>
<path d="M152.512 37.9375V0H164.165C167.091 0 169.494 0.487768 171.373 1.46331C173.288 2.43884 174.715 3.77569 175.654 5.47385C176.594 7.13587 177.063 9.03275 177.063 11.1645C177.063 13.6575 176.413 15.8615 175.112 17.7765C173.848 19.6553 171.897 20.974 169.259 21.7328L177.497 37.9375H172.077L164.436 22.3832H164.165H157.065V37.9375H152.512ZM157.065 18.21H164.002C166.893 18.21 169.006 17.5597 170.343 16.2589C171.716 14.9221 172.403 13.2239 172.403 11.1645C172.403 8.99662 171.734 7.2804 170.397 6.01581C169.097 4.75123 166.947 4.11893 163.948 4.11893H157.065V18.21Z" fill="#FFFBEE"/>
<path d="M122.4 37.9375V0H146.084V4.11893H126.953V16.7467H144.458V20.8656H126.953V33.8186H146.084V37.9375H122.4Z" fill="#FFFBEE"/>
<path d="M101.393 37.9375V4.11893H91.2043V0H116.135V4.11893H105.946V37.9375H101.393Z" fill="#FFFBEE"/>
<path d="M71.0644 37.9375V4.11893H60.8755V0H85.8059V4.11893H75.6169V37.9375H71.0644Z" fill="#FFFBEE"/>
<path d="M31.4138 37.9375V0H55.0977V4.11893H35.9663V16.7467H53.4718V20.8656H35.9663V33.8186H55.0977V37.9375H31.4138Z" fill="#FFFBEE"/>
<path d="M0.000976562 37.9375V0H12.6288C16.567 0 19.5298 0.903275 21.517 2.70982C23.5042 4.51637 24.4978 6.82876 24.4978 9.64698C24.4978 11.851 23.9016 13.6756 22.7093 15.1208C21.517 16.5299 20.1801 17.5235 18.6988 18.1016V18.481C20.4692 19.0591 22.0228 20.1069 23.3597 21.6244C24.6965 23.1419 25.3649 25.093 25.3649 27.4776C25.3649 29.4287 24.8772 31.1991 23.9016 32.7889C22.9622 34.3425 21.5712 35.589 19.7285 36.5284C17.922 37.4678 15.6999 37.9375 13.0623 37.9375H0.000976562ZM4.55348 16.3673H12.3036C14.7244 16.3673 16.567 15.8434 17.8316 14.7956C19.1323 13.7117 19.7827 12.1581 19.7827 10.1347C19.7827 8.2198 19.1504 6.73843 17.8858 5.69063C16.6212 4.64283 14.7063 4.11893 12.141 4.11893H4.55348V16.3673ZM4.55348 33.7644H12.5746C15.176 33.7644 17.1813 33.1863 18.5904 32.0301C19.9995 30.8378 20.704 29.1758 20.704 27.044C20.704 24.9123 19.9634 23.2684 18.482 22.1122C17.0006 20.9198 14.9953 20.3237 12.4662 20.3237H4.55348V33.7644Z" fill="#FFFBEE"/>
</svg>
