<svg width="178" height="91" viewBox="0 0 178 91" fill="none" xmlns="http://www.w3.org/2000/svg">
<path d="M133.999 90.8409C132.879 90.8409 131.921 90.4615 131.126 89.7028C130.331 88.944 129.934 88.0046 129.934 86.8846C129.934 85.8006 130.331 84.8793 131.126 84.1205C131.921 83.3618 132.879 82.9824 133.999 82.9824C135.119 82.9824 136.076 83.3618 136.871 84.1205C137.666 84.8793 138.063 85.8006 138.063 86.8846C138.063 88.0046 137.666 88.944 136.871 89.7028C136.076 90.4615 135.119 90.8409 133.999 90.8409Z" fill="black"/>
<path d="M92.0715 90.732V52.7944H115.755V56.9134H96.624V69.5411H114.13V73.6601H96.624V86.613H115.755V90.732H92.0715Z" fill="black"/>
<path d="M62.0135 90.732V52.7944H85.6974V57.0218H66.5661V70.2457H82.9334V74.3104H66.5661V90.732H62.0135Z" fill="black"/>
<path d="M32.1185 90.732V86.7756H40.7358V56.7508H32.1185V52.7944H53.9055V56.7508H45.2883V86.7756H53.9055V90.732H32.1185Z" fill="black"/>
<path d="M1.13928 90.732V52.7944H5.69179V86.613H24.9315V90.732H1.13928Z" fill="black"/>
<path d="M152.513 37.9375V0H164.165C167.092 0 169.494 0.487768 171.373 1.46331C173.288 2.43884 174.715 3.77569 175.655 5.47385C176.594 7.13587 177.064 9.03275 177.064 11.1645C177.064 13.6575 176.413 15.8615 175.113 17.7765C173.848 19.6553 171.897 20.974 169.259 21.7328L177.497 37.9375H172.078L164.436 22.3832H164.165H157.065V37.9375H152.513ZM157.065 18.21H164.002C166.893 18.21 169.007 17.5597 170.343 16.2589C171.716 14.9221 172.403 13.2239 172.403 11.1645C172.403 8.99662 171.734 7.2804 170.398 6.01581C169.097 4.75123 166.947 4.11893 163.948 4.11893H157.065V18.21Z" fill="black"/>
<path d="M122.401 37.9375V0H146.084V4.11893H126.953V16.7467H144.459V20.8656H126.953V33.8186H146.084V37.9375H122.401Z" fill="black"/>
<path d="M101.394 37.9375V4.11893H91.2046V0H116.135V4.11893H105.946V37.9375H101.394Z" fill="black"/>
<path d="M71.0646 37.9375V4.11893H60.8756V0H85.806V4.11893H75.6171V37.9375H71.0646Z" fill="black"/>
<path d="M31.4139 37.9375V0H55.0978V4.11893H35.9664V16.7467H53.4719V20.8656H35.9664V33.8186H55.0978V37.9375H31.4139Z" fill="black"/>
<path d="M0.000854492 37.9375V0H12.6286C16.5669 0 19.5297 0.903275 21.5169 2.70982C23.5041 4.51637 24.4977 6.82876 24.4977 9.64698C24.4977 11.851 23.9015 13.6756 22.7092 15.1208C21.5169 16.5299 20.18 17.5235 18.6986 18.1016V18.481C20.4691 19.0591 22.0227 20.1069 23.3595 21.6244C24.6964 23.1419 25.3648 25.093 25.3648 27.4776C25.3648 29.4287 24.877 31.1991 23.9015 32.7889C22.9621 34.3425 21.5711 35.589 19.7284 36.5284C17.9218 37.4678 15.6998 37.9375 13.0622 37.9375H0.000854492ZM4.55336 16.3673H12.3035C14.7242 16.3673 16.5669 15.8434 17.8315 14.7956C19.1322 13.7117 19.7826 12.1581 19.7826 10.1347C19.7826 8.2198 19.1503 6.73843 17.8857 5.69063C16.6211 4.64283 14.7062 4.11893 12.1409 4.11893H4.55336V16.3673ZM4.55336 33.7644H12.5744C15.1759 33.7644 17.1811 33.1863 18.5903 32.0301C19.9994 30.8378 20.7039 29.1758 20.7039 27.044C20.7039 24.9123 19.9632 23.2684 18.4819 22.1122C17.0005 20.9198 14.9952 20.3237 12.466 20.3237H4.55336V33.7644Z" fill="black"/>
</svg>
