<svg width="178" height="92" viewBox="0 0 178 92" fill="none" xmlns="http://www.w3.org/2000/svg">
<path d="M164.327 90.8404C163.207 90.8404 162.25 90.4611 161.455 89.7023C160.66 88.9435 160.262 88.0041 160.262 86.8841C160.262 85.8001 160.66 84.8788 161.455 84.1201C162.25 83.3613 163.207 82.9819 164.327 82.9819C165.447 82.9819 166.405 83.3613 167.2 84.1201C167.994 84.8788 168.392 85.8001 168.392 86.8841C168.392 88.0041 167.994 88.9435 167.2 89.7023C166.405 90.4611 165.447 90.8404 164.327 90.8404Z" fill="black"/>
<path d="M121.317 90.7315V52.7939H129.284C135.498 52.7939 140.087 54.4921 143.049 57.8884C146.048 61.2847 147.548 65.9095 147.548 71.7627C147.548 77.6159 146.048 82.2407 143.049 85.637C140.087 89.0333 135.498 90.7315 129.284 90.7315H121.317ZM125.869 86.5584H129.175C132.499 86.5584 135.155 85.9441 137.142 84.7157C139.165 83.4872 140.629 81.771 141.532 79.567C142.435 77.363 142.887 74.7616 142.887 71.7627C142.887 68.7638 142.435 66.1624 141.532 63.9584C140.629 61.7544 139.165 60.0382 137.142 58.8098C135.155 57.5813 132.499 56.9671 129.175 56.9671H125.869V86.5584Z" fill="black"/>
<path d="M103.67 91.3828C100.599 91.3828 97.961 90.5698 95.757 88.944C93.553 87.3181 91.8548 85.0418 90.6625 82.1152C89.5063 79.1525 88.9282 75.7019 88.9282 71.7637C88.9282 67.8254 89.5063 64.3929 90.6625 61.4663C91.8548 58.5036 93.553 56.2093 95.757 54.5834C97.961 52.9575 100.599 52.1445 103.67 52.1445C106.741 52.1445 109.378 52.9575 111.582 54.5834C113.786 56.2093 115.466 58.5036 116.623 61.4663C117.815 64.3929 118.411 67.8254 118.411 71.7637C118.411 75.7019 117.815 79.1525 116.623 82.1152C115.466 85.0418 113.786 87.3181 111.582 88.944C109.378 90.5698 106.741 91.3828 103.67 91.3828ZM103.67 87.1013C106.669 87.1013 109.089 85.7644 110.932 83.0907C112.811 80.417 113.75 76.6413 113.75 71.7637C113.75 66.886 112.811 63.1103 110.932 60.4366C109.089 57.7629 106.669 56.4261 103.67 56.4261C100.635 56.4261 98.1958 57.7629 96.3531 60.4366C94.5105 63.1103 93.5891 66.886 93.5891 71.7637C93.5891 76.6413 94.5105 80.417 96.3531 83.0907C98.1958 85.7644 100.635 87.1013 103.67 87.1013Z" fill="black"/>
<path d="M73.3407 91.3828C70.2696 91.3828 67.632 90.5698 65.428 88.944C63.224 87.3181 61.5259 85.0418 60.3335 82.1152C59.1773 79.1525 58.5992 75.7019 58.5992 71.7637C58.5992 67.8254 59.1773 64.3929 60.3335 61.4663C61.5259 58.5036 63.224 56.2093 65.428 54.5834C67.632 52.9575 70.2696 52.1445 73.3407 52.1445C76.4118 52.1445 79.0494 52.9575 81.2534 54.5834C83.4574 56.2093 85.1375 58.5036 86.2937 61.4663C87.486 64.3929 88.0821 67.8254 88.0821 71.7637C88.0821 75.7019 87.486 79.1525 86.2937 82.1152C85.1375 85.0418 83.4574 87.3181 81.2534 88.944C79.0494 90.5698 76.4118 91.3828 73.3407 91.3828ZM73.3407 87.1013C76.3396 87.1013 78.7603 85.7644 80.603 83.0907C82.4818 80.417 83.4212 76.6413 83.4212 71.7637C83.4212 66.886 82.4818 63.1103 80.603 60.4366C78.7603 57.7629 76.3396 56.4261 73.3407 56.4261C70.3057 56.4261 67.8668 57.7629 66.0242 60.4366C64.1815 63.1103 63.2601 66.886 63.2601 71.7637C63.2601 76.6413 64.1815 80.417 66.0242 83.0907C67.8668 85.7644 70.3057 87.1013 73.3407 87.1013Z" fill="black"/>
<path d="M31.4681 90.7315V52.7939H36.0206V86.6126H55.2604V90.7315H31.4681Z" fill="black"/>
<path d="M0.00109863 90.7315V52.7939H12.6289C16.5672 52.7939 19.5299 53.6972 21.5171 55.5038C23.5043 57.3103 24.4979 59.6227 24.4979 62.4409C24.4979 64.6449 23.9018 66.4695 22.7094 67.9148C21.5171 69.3239 20.1803 70.3175 18.6989 70.8956V71.275C20.4693 71.853 22.0229 72.9008 23.3598 74.4183C24.6966 75.9358 25.3651 77.8869 25.3651 80.2716C25.3651 82.2226 24.8773 83.9931 23.9018 85.5828C22.9623 87.1365 21.5713 88.383 19.7286 89.3224C17.9221 90.2618 15.7 90.7315 13.0625 90.7315H0.00109863ZM4.5536 69.1613H12.3037C14.7245 69.1613 16.5672 68.6374 17.8317 67.5896C19.1325 66.5057 19.7828 64.952 19.7828 62.9287C19.7828 61.0137 19.1505 59.5324 17.8859 58.4846C16.6214 57.4368 14.7064 56.9129 12.1411 56.9129H4.5536V69.1613ZM4.5536 86.5584H12.5747C15.1761 86.5584 17.1814 85.9803 18.5905 84.8241C19.9996 83.6318 20.7042 81.9697 20.7042 79.838C20.7042 77.7063 19.9635 76.0623 18.4821 74.9061C17.0007 73.7138 14.9955 73.1176 12.4663 73.1176H4.5536V86.5584Z" fill="black"/>
<path d="M152.513 37.9375V0H164.165C167.092 0 169.494 0.487768 171.373 1.46331C173.288 2.43884 174.715 3.77569 175.655 5.47385C176.594 7.13587 177.064 9.03275 177.064 11.1645C177.064 13.6575 176.413 15.8615 175.113 17.7765C173.848 19.6553 171.897 20.974 169.259 21.7328L177.497 37.9375H172.078L164.436 22.3832H164.165H157.065V37.9375H152.513ZM157.065 18.21H164.002C166.893 18.21 169.007 17.5597 170.343 16.2589C171.716 14.9221 172.403 13.2239 172.403 11.1645C172.403 8.99662 171.734 7.2804 170.398 6.01581C169.097 4.75123 166.947 4.11893 163.948 4.11893H157.065V18.21Z" fill="black"/>
<path d="M122.401 37.9375V0H146.084V4.11893H126.953V16.7467H144.459V20.8656H126.953V33.8186H146.084V37.9375H122.401Z" fill="black"/>
<path d="M101.394 37.9375V4.11893H91.2046V0H116.135V4.11893H105.946V37.9375H101.394Z" fill="black"/>
<path d="M71.0646 37.9375V4.11893H60.8756V0H85.806V4.11893H75.6171V37.9375H71.0646Z" fill="black"/>
<path d="M31.4139 37.9375V0H55.0978V4.11893H35.9664V16.7467H53.4719V20.8656H35.9664V33.8186H55.0978V37.9375H31.4139Z" fill="black"/>
<path d="M0.00109863 37.9375V0H12.6289C16.5672 0 19.5299 0.903275 21.5171 2.70982C23.5043 4.51637 24.4979 6.82876 24.4979 9.64698C24.4979 11.851 23.9018 13.6756 22.7094 15.1208C21.5171 16.5299 20.1803 17.5235 18.6989 18.1016V18.481C20.4693 19.0591 22.0229 20.1069 23.3598 21.6244C24.6966 23.1419 25.3651 25.093 25.3651 27.4776C25.3651 29.4287 24.8773 31.1991 23.9018 32.7889C22.9623 34.3425 21.5713 35.589 19.7286 36.5284C17.9221 37.4678 15.7 37.9375 13.0625 37.9375H0.00109863ZM4.5536 16.3673H12.3037C14.7245 16.3673 16.5672 15.8434 17.8317 14.7956C19.1325 13.7117 19.7828 12.1581 19.7828 10.1347C19.7828 8.2198 19.1505 6.73843 17.8859 5.69063C16.6214 4.64283 14.7064 4.11893 12.1411 4.11893H4.5536V16.3673ZM4.5536 33.7644H12.5747C15.1761 33.7644 17.1814 33.1863 18.5905 32.0301C19.9996 30.8378 20.7042 29.1758 20.7042 27.044C20.7042 24.9123 19.9635 23.2684 18.4821 22.1122C17.0007 20.9198 14.9955 20.3237 12.4663 20.3237H4.5536V33.7644Z" fill="black"/>
</svg>
