<svg width="203" height="271" viewBox="0 0 203 271" fill="none" xmlns="http://www.w3.org/2000/svg">
<path d="M191.866 74.9091L202.454 56.5561L171.429 38.6401L161.076 56.5561L143.059 46.1359L153.412 28.2199L122.32 10.2703L111.731 28.6233L142.656 46.472L132.773 63.5813L97.5466 43.2451L38.5547 145.43L0 212.22L32.1682 230.809L15.6304 259.447L34.5547 270.372L51.0926 241.733L88.7398 263.481L186.286 94.5058L151.093 74.2032L160.975 57.0939L191.866 74.9427V74.9091ZM28.9077 204.456L46.2859 174.338L98.3533 204.388L80.9751 234.506L28.9077 204.422V204.456ZM108.975 186.069L56.9078 156.019L105.311 72.1864L157.379 102.237L108.975 186.069Z" fill="#FFFBEE"/>
<path d="M171.44 0.000180238L159.403 20.8411L177.74 31.4325L189.778 10.5916L171.44 0.000180238Z" fill="#FFFBEE"/>
</svg>
