<svg width="186" height="230" viewBox="0 0 186 230" fill="none" xmlns="http://www.w3.org/2000/svg">
<path d="M183.189 46.5684C178.853 30.3667 168.466 16.8541 153.945 8.4507C139.424 0.0473136 122.517 -2.17118 106.315 2.16497C90.1132 6.50111 76.5669 16.8877 68.1971 31.4087L43.7265 73.7954L61.9113 84.3164L51.1551 102.972L32.9365 92.4509L8.39863 134.938C-8.91234 164.922 1.40697 203.376 31.3566 220.687C41.2054 226.367 51.9953 229.09 62.6508 229.09C84.3652 229.09 105.508 217.829 117.105 197.729L141.575 155.342L123.458 144.888L134.349 126.031L62.0795 84.3164L86.5165 41.997C92.0627 32.3835 101.038 25.4928 111.76 22.602C122.483 19.7448 133.71 21.1902 143.323 26.7701C152.937 32.3163 159.828 41.2911 162.718 52.0138C165.609 62.7366 164.13 73.9635 158.55 83.5769L134.147 125.863L152.5 136.451L176.903 94.1652C185.307 79.6442 187.525 62.7702 183.189 46.5684ZM98.819 187.174C87.3568 207.039 61.8778 213.863 42.0122 202.401C32.3987 196.855 25.508 187.88 22.6172 177.157C19.7264 166.434 21.2054 155.207 26.7852 145.594L51.2222 103.274L123.256 144.888L98.819 187.207V187.174Z" fill="white"/>
</svg>
