<svg width="1357" height="169" viewBox="0 0 1357 169" fill="none" xmlns="http://www.w3.org/2000/svg">
<path fill-rule="evenodd" clip-rule="evenodd" d="M1321.55 22.153L1329.66 8.17695L1326.42 2.54075L1300.19 47.7042C1296 54.9212 1295.02 63.3302 1297.38 71.3497C1299.73 79.3697 1305.14 85.8717 1312.59 89.6677C1316.87 91.873 1321.54 92.9545 1326.22 92.9678C1326.21 92.9678 1326.2 92.9678 1326.19 92.9677L1326.25 92.9678C1326.24 92.9678 1326.23 92.9678 1326.22 92.9678C1330.9 92.9724 1335.57 91.8526 1339.86 89.72C1347.32 85.9526 1352.7 79.4712 1355.14 71.4604C1357.59 63.4501 1356.59 55.0373 1352.42 47.8043L1332.87 13.7608L1329.63 19.3448L1347.62 50.6174C1350.99 56.5508 1351.77 63.3823 1349.84 69.8699C1347.85 76.3574 1343.43 81.6552 1337.39 84.6916C1330.43 88.1777 1322.13 88.1618 1315.2 84.649C1309.1 81.5894 1304.71 76.2747 1302.8 69.7798C1300.89 63.2282 1301.7 56.3997 1305.1 50.5359L1321.56 22.1599L1321.55 22.153Z" fill="black"/>
<path d="M1326.27 81.3939C1323.33 81.3882 1320.4 80.7053 1317.75 79.3455C1313.06 76.9657 1309.74 72.8952 1308.22 67.925C1306.77 62.8985 1307.4 57.7066 1310 53.1394L1326.38 24.9475L1342.64 53.202C1345.23 57.7226 1345.84 62.9733 1344.36 67.9943C1342.88 73.0152 1339.49 77.0164 1334.8 79.3781C1332.14 80.7278 1329.2 81.3995 1326.27 81.3939ZM1326.35 36.2368L1314.91 55.9711C1313.1 59.1287 1312.64 62.7968 1313.65 66.2985C1314.66 69.8001 1317.02 72.6269 1320.3 74.3266C1324.02 76.2529 1328.48 76.2615 1332.21 74.3494C1335.49 72.7188 1337.87 69.901 1338.89 66.3468C1339.91 62.7926 1339.52 59.1793 1337.67 56.0148L1326.3 36.2367L1326.35 36.2368Z" fill="black"/>
<path d="M27.8324 111.591L27.7355 162.137L0.00883926 162.084L0.105704 111.538L27.8324 111.591ZM27.8324 111.591L27.8814 85.9969L66.0624 86.0701C82.6938 86.1019 91.0382 74.1717 91.0611 62.2373C91.0839 50.3028 82.7849 38.5505 66.1536 38.5186L27.9726 38.4455L28.0216 12.8516L70.678 12.9333C103.521 12.9963 119.688 36.6982 119.639 62.292C119.589 87.8859 103.332 111.735 70.4888 111.673L27.8324 111.591ZM0.154751 85.9438L0.245898 38.3807L27.9726 38.4338L27.8814 85.9969L0.154751 85.9438Z" fill="black"/>
<path d="M187.177 74.3686C183.764 73.5113 180.35 73.0735 177.366 73.0678C161.155 73.0367 148.978 83.8871 148.943 102.441L148.828 162.369L123.234 162.32L123.447 51.4267L149.04 51.4758L149.009 67.8971L149.44 67.8979C156.715 54.2643 171.451 45.9711 187.221 51.5489L187.177 74.3686Z" fill="black"/>
<path d="M241.651 165.96C209.239 165.898 185.601 143.033 185.67 106.776C185.74 70.5183 209.453 48.1752 241.876 48.2374C274.299 48.2995 297.926 70.9547 297.857 106.991C297.788 143.027 274.074 166.022 241.651 165.96ZM212.115 106.826C212.073 128.585 224.202 142.466 241.684 142.5C259.166 142.533 271.36 128.699 271.401 106.94C271.443 85.1809 259.313 71.7315 241.82 71.698C224.326 71.6645 212.156 85.4985 212.115 106.826Z" fill="black"/>
<path d="M291.858 51.7483L321.717 51.8055L346.811 87.2604L369.489 51.8971L399.348 51.9543L361.061 107.543L400.196 162.85L370.337 162.792L344.174 125.634L319.581 162.695L289.722 162.638L329.714 105.351L291.858 51.7483Z" fill="black"/>
<path d="M445.663 162.937L420.069 162.888L420.237 75.4419L401.892 75.4068L401.937 51.9457L445.876 52.0299L445.663 162.925L445.663 162.937ZM433.12 30.6888C424.798 30.6729 418.203 23.8305 418.219 15.7305C418.234 7.63041 424.855 0.813384 433.177 0.829331C441.498 0.845278 448.094 7.46619 448.078 15.7877C448.062 24.1092 441.441 30.7048 433.12 30.6888Z" fill="black"/>
<path d="M461.933 162.968L462.145 52.073L487.739 52.1221L487.708 68.5437L488.139 68.5445C494.995 54.9098 503.107 48.7367 518.456 48.7661C532.104 48.7923 545.099 54.7844 551.692 69.0858L552.123 69.0867C559.828 56.0947 571.357 48.8675 586.706 48.8969C606.112 48.9341 624.222 61.556 624.165 91.4155L624.027 163.29L598.433 163.241L598.548 103.313C598.587 83.2664 590.505 73.4375 578.349 73.4143C566.194 73.391 555.942 83.1847 555.903 103.231L555.789 163.16L530.195 163.111L530.31 103.182C530.348 83.1356 522.267 73.3068 510.111 73.2835C497.955 73.2602 487.703 83.0539 487.665 103.1L487.55 163.029L461.956 162.98L461.933 162.968Z" fill="black"/>
<path d="M700.489 86.8642C700.508 77.2725 691.566 72.5586 681.531 72.5393C671.497 72.5201 662.327 77.1993 662.309 86.7911L636.715 86.742C638.471 58.5995 659.817 49.037 681.576 49.0787C703.335 49.1204 726.133 54.4902 726.072 86.2722L726.046 99.71L700.453 99.6609L700.478 86.8642L700.489 86.8642ZM668.985 166.778C648.508 166.739 632.54 155.193 632.581 133.865C632.625 111.046 651.411 99.5669 675.943 99.614L700.465 99.6609L700.426 119.917L675.905 119.87C663.539 119.846 659.041 125.804 659.029 131.783C659.018 137.762 663.482 143.738 675.859 143.761C693.982 143.796 700.392 137.41 700.417 124.404L700.426 119.928L726.019 119.977L725.936 163.484L700.343 163.435L700.37 149.356L699.938 149.355C696.727 158.521 684.334 166.807 668.985 166.778Z" fill="black"/>
<path d="M990.211 105.544C990.291 63.3191 965.796 49.6246 940.844 49.5768C915.892 49.529 894.107 68.8922 891.051 100.447C890.683 103.803 890.537 107.182 890.601 110.562L890.6 110.691C891.606 145.237 912.671 166.827 941.68 166.882C967.063 166.931 983.721 153.315 990.17 126.673L978.224 126.65C973.712 145.627 962.818 156.27 942.341 156.231C920.372 156.189 903.565 138.675 902.546 110.725L990.2 110.893L990.21 105.567L990.211 105.544ZM902.566 100.469C905.597 75.5224 920.987 60.1911 941.465 60.2303C961.942 60.2696 975.137 70.9588 977.423 100.613L902.566 100.469Z" fill="black"/>
<path d="M1070.91 91.4108C1070.95 72.8567 1067.14 59.6214 1040.06 59.5695C1019.16 59.5295 1013.59 71.4648 1013.57 78.9237L1002.48 78.9025C1004.22 59.2794 1019.81 49.7176 1041.57 49.7592C1063.33 49.8009 1082.08 55.163 1082.02 86.9451L1081.99 103.798L1070.89 103.776L1070.91 91.4108ZM1031.53 167.475C1009.14 167.432 997.428 154.613 997.462 136.7C997.516 108.764 1020.55 103.692 1045.94 103.74L1070.89 103.788L1070.87 113.17L1043.58 113.118C1024.59 113.081 1009.45 117.108 1009.41 134.811C1009.38 152.515 1023.66 157.227 1035.17 157.249C1050.1 157.278 1070.81 146.863 1070.85 126.176L1070.87 113.17L1081.97 113.191L1081.87 164.168L1070.78 164.147L1070.81 146.653L1070.38 146.653C1061.18 161.774 1048.37 167.507 1031.53 167.475Z" fill="black"/>
<path d="M1113.06 164.216L1101.96 164.195L1102.27 6.37769L1113.36 6.39895L1113.06 164.216Z" fill="black"/>
<path d="M1132.44 53.3573L1132.49 30.5376L1143.59 25.4425L1143.54 53.3785L1132.44 53.3573ZM1143.54 53.3785L1170.83 53.4308L1170.81 63.244L1143.52 63.1917L1143.54 53.3785ZM1143.37 142.734C1143.35 154.039 1151.23 157.469 1159.55 157.485C1164.03 157.494 1168.72 156.442 1171.92 155.166L1171.9 164.338C1167.42 166.031 1162.72 167.735 1156.33 167.723C1143.32 167.698 1132.24 159.577 1132.27 142.934L1132.42 63.1704L1143.52 63.1917L1143.37 142.746L1143.37 142.734Z" fill="black"/>
<path d="M1255.81 90.7041C1255.85 70.6579 1241.79 60.8176 1225.58 60.7865C1209.36 60.7555 1192.71 70.5369 1192.67 90.5831L1192.53 164.369L1181.45 164.348L1181.75 6.53101L1192.84 6.55225L1192.72 67.7631L1193.15 67.7639C1200.42 56.2629 1213.87 50.1 1228.37 50.1277C1250.77 50.1707 1266.95 62.7888 1266.89 92.6367L1266.75 164.512L1255.67 164.49L1255.81 90.7041Z" fill="black"/>
<path d="M778.954 163.577L767.007 163.554L767.147 90.8286L779.093 90.8515L778.954 163.577Z" fill="black"/>
<path d="M877.914 163.766L865.968 163.743L866.108 91.0182L779.093 90.8515L779.112 80.6183L866.127 80.785L866.254 14.4576L878.2 14.4805L877.914 163.766Z" fill="black"/>
<path d="M779.112 80.6183L767.166 80.5954L767.293 14.2679L779.24 14.2908L779.112 80.6183Z" fill="black"/>
</svg>
