<svg width="1357" height="169" viewBox="0 0 1357 169" fill="none" xmlns="http://www.w3.org/2000/svg">
<path fill-rule="evenodd" clip-rule="evenodd" d="M1321.55 22.1536L1329.66 8.17756L1326.42 2.54136L1300.19 47.7048C1296 54.9218 1295.02 63.3308 1297.38 71.3503C1299.73 79.3703 1305.14 85.8724 1312.59 89.6683C1316.87 91.8736 1321.54 92.9551 1326.22 92.9684C1326.21 92.9684 1326.2 92.9684 1326.19 92.9683L1326.25 92.9685C1326.24 92.9684 1326.23 92.9684 1326.22 92.9684C1330.9 92.973 1335.57 91.8532 1339.86 89.7206C1347.32 85.9532 1352.7 79.4718 1355.14 71.461C1357.58 63.4507 1356.58 55.0379 1352.42 47.8049L1332.87 13.7614L1329.63 19.3455L1347.61 50.618C1350.99 56.5514 1351.77 63.3829 1349.84 69.8705C1347.85 76.358 1343.43 81.6558 1337.39 84.6922C1330.43 88.1784 1322.13 88.1625 1315.2 84.6496C1309.1 81.59 1304.71 76.2753 1302.8 69.7804C1300.89 63.2288 1301.7 56.4003 1305.1 50.5366L1321.56 22.1606L1321.55 22.1536Z" fill="white"/>
<path d="M1326.27 81.3952C1323.33 81.3896 1320.4 80.7066 1317.74 79.3468C1313.06 76.9671 1309.74 72.8966 1308.22 67.9263C1306.77 62.8998 1307.4 57.7079 1310 53.1408L1326.38 24.9488L1342.64 53.2033C1345.23 57.724 1345.84 62.9747 1344.36 67.9956C1342.88 73.0165 1339.49 77.0177 1334.8 79.3795C1332.14 80.7291 1329.2 81.4008 1326.27 81.3952ZM1326.35 36.2381L1314.91 55.9725C1313.1 59.13 1312.64 62.7982 1313.65 66.2998C1314.66 69.8014 1317.02 72.6283 1320.3 74.3279C1324.02 76.2543 1328.48 76.2628 1332.21 74.3508C1335.49 72.7201 1337.86 69.9023 1338.89 66.3482C1339.91 62.794 1339.52 59.1807 1337.67 56.0161L1326.3 36.238L1326.35 36.2381Z" fill="white"/>
<path d="M27.832 111.592L27.7352 162.138L0.00847305 162.085L0.105338 111.538L27.832 111.592ZM27.832 111.592L27.8811 85.9977L66.0621 86.0709C82.6934 86.1028 91.0378 74.1726 91.0607 62.2381C91.0836 50.3036 82.7845 38.5514 66.1532 38.5195L27.9722 38.4463L28.0212 12.8525L70.6777 12.9342C103.521 12.9971 119.687 36.699 119.638 62.2929C119.589 87.8868 103.332 111.736 70.4885 111.673L27.832 111.592ZM0.154384 85.9446L0.245531 38.3815L27.9722 38.4347L27.8811 85.9977L0.154384 85.9446Z" fill="white"/>
<path d="M187.176 74.3698C183.763 73.5125 180.349 73.0747 177.366 73.069C161.154 73.0379 148.978 83.8884 148.942 102.442L148.827 162.37L123.234 162.321L123.446 51.428L149.04 51.477L149.008 67.8983L149.44 67.8991C156.715 54.2655 171.451 45.9723 187.22 51.5502L187.176 74.3698Z" fill="white"/>
<path d="M241.65 165.961C209.239 165.899 185.601 143.034 185.67 106.777C185.74 70.5194 209.453 48.1763 241.876 48.2385C274.299 48.3006 297.926 70.9558 297.857 106.992C297.788 143.028 274.073 166.023 241.65 165.961ZM212.114 106.827C212.073 128.587 224.202 142.467 241.684 142.501C259.165 142.534 271.359 128.7 271.401 106.941C271.443 85.182 259.313 71.7326 241.819 71.6991C224.326 71.6656 212.155 85.4996 212.114 106.827Z" fill="white"/>
<path d="M291.858 51.7495L321.717 51.8068L346.811 87.2616L369.489 51.8983L399.348 51.9555L361.061 107.545L400.196 162.851L370.337 162.794L344.173 125.635L319.581 162.696L289.722 162.639L329.714 105.352L291.858 51.7495Z" fill="white"/>
<path d="M445.663 162.938L420.069 162.889L420.237 75.443L401.892 75.4079L401.937 51.9468L445.876 52.031L445.663 162.926L445.663 162.938ZM433.119 30.6899C424.798 30.674 418.203 23.8316 418.218 15.7316C418.234 7.63151 424.855 0.814483 433.177 0.83043C441.498 0.846377 448.094 7.46729 448.078 15.7888C448.062 24.1103 441.441 30.7059 433.119 30.6899Z" fill="white"/>
<path d="M461.932 162.969L462.145 52.074L487.739 52.1231L487.707 68.5446L488.138 68.5455C494.994 54.9108 503.106 48.7377 518.456 48.7671C532.103 48.7932 545.099 54.7854 551.691 69.0868L552.122 69.0877C559.828 56.0956 571.357 48.8685 586.706 48.8979C606.111 48.9351 624.222 61.557 624.164 91.4165L624.027 163.291L598.433 163.242L598.548 103.314C598.586 83.2674 590.505 73.4385 578.349 73.4152C566.193 73.3919 555.941 83.1856 555.903 103.232L555.788 163.161L530.194 163.112L530.309 103.183C530.348 83.1366 522.266 73.3078 510.11 73.2845C497.954 73.2612 487.703 83.0549 487.664 103.101L487.549 163.03L461.956 162.981L461.932 162.969Z" fill="white"/>
<path d="M700.489 86.8652C700.507 77.2735 691.566 72.5595 681.531 72.5403C671.496 72.5211 662.327 77.2003 662.309 86.792L636.715 86.743C638.471 58.6005 659.817 49.038 681.576 49.0797C703.335 49.1214 726.133 54.4912 726.072 86.2732L726.046 99.7109L700.453 99.6619L700.477 86.8652L700.489 86.8652ZM668.985 166.779C648.508 166.74 632.54 155.194 632.581 133.866C632.624 111.047 651.41 99.5679 675.943 99.6149L700.464 99.6619L700.426 119.918L675.904 119.871C663.539 119.847 659.041 125.805 659.029 131.784C659.018 137.763 663.481 143.739 675.859 143.762C693.981 143.797 700.392 137.411 700.417 124.405L700.426 119.929L726.019 119.978L725.936 163.485L700.342 163.436L700.369 149.357L699.938 149.356C696.727 158.522 684.334 166.808 668.985 166.779Z" fill="white"/>
<path d="M990.211 105.545C990.291 63.3202 965.796 49.6257 940.844 49.5779C915.892 49.5301 894.107 68.8933 891.051 100.448C890.683 103.804 890.537 107.184 890.601 110.563L890.6 110.692C891.606 145.238 912.671 166.828 941.68 166.883C967.063 166.932 983.721 153.316 990.17 126.674L978.224 126.652C973.712 145.628 962.818 156.271 942.341 156.232C920.372 156.19 903.565 138.676 902.546 110.726L990.2 110.894L990.21 105.568L990.211 105.545ZM902.566 100.47C905.597 75.5235 920.987 60.1922 941.465 60.2314C961.942 60.2707 975.137 70.9599 977.423 100.614L902.566 100.47Z" fill="white"/>
<path d="M1070.91 91.412C1070.95 72.8579 1067.14 59.6227 1040.06 59.5708C1019.16 59.5307 1013.59 71.466 1013.57 78.9249L1002.48 78.9037C1004.22 59.2806 1019.81 49.7188 1041.57 49.7605C1063.33 49.8022 1082.08 55.1643 1082.02 86.9463L1081.99 103.799L1070.89 103.778L1070.91 91.412ZM1031.53 167.476C1009.14 167.433 997.428 154.614 997.462 136.701C997.515 108.765 1020.55 103.693 1045.94 103.741L1070.89 103.789L1070.87 113.171L1043.58 113.119C1024.59 113.082 1009.45 117.109 1009.41 134.812C1009.38 152.516 1023.66 157.228 1035.17 157.25C1050.1 157.279 1070.81 146.864 1070.85 126.178L1070.87 113.171L1081.97 113.192L1081.87 164.169L1070.78 164.148L1070.81 146.655L1070.38 146.654C1061.18 161.776 1048.37 167.508 1031.53 167.476Z" fill="white"/>
<path d="M1113.06 164.217L1101.96 164.196L1102.27 6.37878L1113.36 6.40005L1113.06 164.217Z" fill="white"/>
<path d="M1132.44 53.3581L1132.49 30.5385L1143.59 25.4434L1143.54 53.3794L1132.44 53.3581ZM1143.54 53.3794L1170.83 53.4317L1170.81 63.2448L1143.52 63.1925L1143.54 53.3794ZM1143.37 142.735C1143.35 154.04 1151.23 157.47 1159.55 157.486C1164.03 157.494 1168.72 156.443 1171.92 155.167L1171.9 164.339C1167.42 166.032 1162.72 167.736 1156.33 167.724C1143.32 167.699 1132.24 159.578 1132.27 142.935L1132.42 63.1713L1143.52 63.1925L1143.37 142.747L1143.37 142.735Z" fill="white"/>
<path d="M1255.81 90.7051C1255.85 70.6589 1241.79 60.8186 1225.57 60.7875C1209.36 60.7564 1192.71 70.5379 1192.67 90.5841L1192.53 164.37L1181.45 164.349L1181.75 6.53198L1192.84 6.55322L1192.72 67.764L1193.15 67.7649C1200.42 56.2639 1213.87 50.1009 1228.37 50.1287C1250.77 50.1716 1266.95 62.7898 1266.89 92.6377L1266.75 164.513L1255.67 164.491L1255.81 90.7051Z" fill="white"/>
<path d="M778.954 163.578L767.007 163.555L767.147 90.8298L779.093 90.8527L778.954 163.578Z" fill="white"/>
<path d="M877.914 163.767L865.968 163.745L866.108 91.0195L779.093 90.8527L779.112 80.6195L866.127 80.7863L866.254 14.4588L878.2 14.4817L877.914 163.767Z" fill="white"/>
<path d="M779.112 80.6195L767.166 80.5966L767.293 14.2692L779.24 14.2921L779.112 80.6195Z" fill="white"/>
</svg>
