<svg width="1357" height="169" viewBox="0 0 1357 169" fill="none" xmlns="http://www.w3.org/2000/svg">
<path fill-rule="evenodd" clip-rule="evenodd" d="M1321.55 22.1534L1329.66 8.17738L1326.42 2.54118L1300.19 47.7046C1296 54.9216 1295.02 63.3306 1297.38 71.3502C1299.73 79.3701 1305.14 85.8722 1312.59 89.6682C1316.87 91.8734 1321.54 92.9549 1326.22 92.9682C1326.21 92.9682 1326.2 92.9682 1326.19 92.9682L1326.25 92.9683C1326.24 92.9683 1326.23 92.9682 1326.22 92.9682C1330.9 92.9729 1335.57 91.8531 1339.86 89.7204C1347.32 85.953 1352.7 79.4716 1355.14 71.4608C1357.59 63.4505 1356.59 55.0377 1352.42 47.8047L1332.87 13.7612L1329.63 19.3453L1347.62 50.6179C1350.99 56.5512 1351.77 63.3828 1349.84 69.8703C1347.85 76.3578 1343.43 81.6556 1337.39 84.692C1330.43 88.1782 1322.13 88.1623 1315.2 84.6495C1309.1 81.5899 1304.71 76.2751 1302.8 69.7802C1300.89 63.2287 1301.7 56.4001 1305.1 50.5364L1321.57 22.1604L1321.55 22.1534Z" fill="#FFFBEE"/>
<path d="M1326.27 81.3945C1323.33 81.3889 1320.4 80.7059 1317.74 79.3461C1313.06 76.9664 1309.74 72.8959 1308.22 67.9257C1306.77 62.8991 1307.4 57.7073 1310 53.1401L1326.37 24.9482L1342.64 53.2026C1345.23 57.7233 1345.84 62.974 1344.36 67.9949C1342.88 73.0158 1339.49 77.017 1334.8 79.3788C1332.14 80.7284 1329.2 81.4002 1326.27 81.3945ZM1326.35 36.2374L1314.91 55.9718C1313.1 59.1293 1312.64 62.7975 1313.65 66.2991C1314.66 69.8007 1317.02 72.6276 1320.29 74.3273C1324.02 76.2536 1328.48 76.2621 1332.21 74.3501C1335.49 72.7194 1337.86 69.9017 1338.89 66.3475C1339.91 62.7933 1339.52 59.18 1337.66 56.0154L1326.3 36.2373L1326.35 36.2374Z" fill="#FFFBEE"/>
<path d="M27.832 111.591L27.7352 162.138L0.00847305 162.085L0.105338 111.538L27.832 111.591ZM27.832 111.591L27.8811 85.9976L66.0621 86.0708C82.6934 86.1027 91.0378 74.1725 91.0607 62.238C91.0836 50.3035 82.7845 38.5512 66.1532 38.5194L27.9722 38.4462L28.0212 12.8523L70.6777 12.9341C103.521 12.997 119.687 36.6989 119.638 62.2928C119.589 87.8866 103.332 111.736 70.4885 111.673L27.832 111.591ZM0.154384 85.9445L0.245531 38.3814L27.9722 38.4345L27.8811 85.9976L0.154384 85.9445Z" fill="#FFFBEE"/>
<path d="M187.177 74.3695C183.763 73.5121 180.349 73.0744 177.366 73.0686C161.154 73.0376 148.978 83.888 148.942 102.442L148.827 162.37L123.234 162.321L123.446 51.4276L149.04 51.4766L149.008 67.8979L149.44 67.8987C156.715 54.2651 171.451 45.972 187.22 51.5498L187.177 74.3695Z" fill="#FFFBEE"/>
<path d="M241.65 165.961C209.239 165.899 185.601 143.034 185.67 106.776C185.74 70.5191 209.453 48.176 241.876 48.2382C274.299 48.3003 297.926 70.9555 297.857 106.991C297.788 143.027 274.073 166.023 241.65 165.961ZM212.114 106.827C212.073 128.586 224.202 142.467 241.684 142.5C259.166 142.534 271.36 128.7 271.401 106.941C271.443 85.1817 259.313 71.7323 241.819 71.6988C224.326 71.6653 212.155 85.4993 212.114 106.827Z" fill="#FFFBEE"/>
<path d="M291.858 51.7492L321.717 51.8064L346.811 87.2613L369.489 51.898L399.348 51.9552L361.061 107.544L400.196 162.851L370.337 162.793L344.174 125.635L319.581 162.696L289.722 162.639L329.714 105.351L291.858 51.7492Z" fill="#FFFBEE"/>
<path d="M445.663 162.937L420.069 162.888L420.237 75.4427L401.892 75.4076L401.937 51.9465L445.876 52.0307L445.663 162.926L445.663 162.937ZM433.12 30.6896C424.798 30.6737 418.203 23.8313 418.219 15.7313C418.234 7.63121 424.855 0.814178 433.177 0.830125C441.498 0.846071 448.094 7.46699 448.078 15.7885C448.062 24.11 441.441 30.7056 433.12 30.6896Z" fill="#FFFBEE"/>
<path d="M461.932 162.969L462.145 52.0737L487.738 52.1228L487.707 68.5443L488.138 68.5452C494.994 54.9105 503.106 48.7374 518.455 48.7668C532.103 48.7929 545.098 54.7851 551.691 69.0865L552.122 69.0873C559.827 56.0953 571.356 48.8681 586.706 48.8976C606.111 48.9348 624.221 61.5567 624.164 91.4162L624.027 163.291L598.433 163.242L598.548 103.313C598.586 83.2671 590.505 73.4382 578.349 73.4149C566.193 73.3916 555.941 83.1853 555.903 103.232L555.788 163.16L530.194 163.111L530.309 103.182C530.347 83.1363 522.266 73.3074 510.11 73.2842C497.954 73.2609 487.702 83.0546 487.664 103.101L487.549 163.03L461.955 162.981L461.932 162.969Z" fill="#FFFBEE"/>
<path d="M700.489 86.8649C700.507 77.2732 691.565 72.5592 681.531 72.54C671.496 72.5208 662.327 77.2 662.308 86.7917L636.715 86.7427C638.47 58.6002 659.817 49.0377 681.576 49.0794C703.335 49.1211 726.133 54.4909 726.072 86.2729L726.046 99.7106L700.453 99.6616L700.477 86.8649L700.489 86.8649ZM668.985 166.778C648.508 166.739 632.54 155.194 632.581 133.866C632.624 111.046 651.41 99.5676 675.943 99.6146L700.464 99.6616L700.425 119.917L675.904 119.87C663.539 119.847 659.04 125.805 659.029 131.784C659.017 137.763 663.481 143.738 675.858 143.762C693.981 143.797 700.392 137.411 700.417 124.404L700.425 119.929L726.019 119.978L725.935 163.484L700.342 163.435L700.369 149.357L699.938 149.356C696.727 158.522 684.334 166.808 668.985 166.778Z" fill="#FFFBEE"/>
<path d="M990.211 105.544C990.291 63.32 965.796 49.6255 940.844 49.5777C915.892 49.5298 894.107 68.893 891.051 100.448C890.683 103.804 890.537 107.183 890.601 110.563L890.6 110.691C891.606 145.238 912.671 166.827 941.68 166.883C967.063 166.932 983.721 153.316 990.17 126.674L978.224 126.651C973.712 145.628 962.818 156.271 942.341 156.232C920.372 156.19 903.565 138.676 902.546 110.726L990.2 110.894L990.21 105.568L990.211 105.544ZM902.566 100.47C905.597 75.5232 920.987 60.1919 941.465 60.2312C961.942 60.2704 975.137 70.9597 977.423 100.613L902.566 100.47Z" fill="#FFFBEE"/>
<path d="M1070.91 91.4117C1070.95 72.8576 1067.14 59.6224 1040.06 59.5705C1019.16 59.5304 1013.59 71.4657 1013.57 78.9246L1002.48 78.9034C1004.22 59.2803 1019.81 49.7185 1041.57 49.7602C1063.33 49.8019 1082.08 55.164 1082.02 86.946L1081.99 103.798L1070.89 103.777L1070.91 91.4117ZM1031.53 167.476C1009.14 167.433 997.428 154.614 997.462 136.701C997.516 108.765 1020.55 103.692 1045.94 103.741L1070.89 103.789L1070.87 113.171L1043.58 113.118C1024.59 113.082 1009.45 117.109 1009.41 134.812C1009.38 152.515 1023.66 157.228 1035.17 157.25C1050.1 157.279 1070.81 146.864 1070.85 126.177L1070.87 113.171L1081.97 113.192L1081.87 164.169L1070.78 164.148L1070.81 146.654L1070.38 146.654C1061.18 161.775 1048.37 167.508 1031.53 167.476Z" fill="#FFFBEE"/>
<path d="M1113.06 164.217L1101.96 164.196L1102.27 6.37848L1113.36 6.39974L1113.06 164.217Z" fill="#FFFBEE"/>
<path d="M1132.44 53.3578L1132.49 30.5382L1143.59 25.4431L1143.54 53.3791L1132.44 53.3578ZM1143.54 53.3791L1170.83 53.4314L1170.81 63.2445L1143.52 63.1922L1143.54 53.3791ZM1143.37 142.735C1143.35 154.04 1151.23 157.47 1159.55 157.485C1164.03 157.494 1168.72 156.443 1171.92 155.167L1171.9 164.339C1167.42 166.032 1162.72 167.736 1156.33 167.724C1143.32 167.699 1132.24 159.578 1132.27 142.935L1132.42 63.171L1143.52 63.1922L1143.37 142.746L1143.37 142.735Z" fill="#FFFBEE"/>
<path d="M1255.81 90.7048C1255.85 70.6586 1241.79 60.8183 1225.58 60.7873C1209.36 60.7562 1192.71 70.5376 1192.67 90.5838L1192.53 164.37L1181.45 164.349L1181.75 6.53174L1192.84 6.55298L1192.72 67.7638L1193.15 67.7646C1200.42 56.2636 1213.87 50.1007 1228.37 50.1285C1250.77 50.1714 1266.95 62.7896 1266.89 92.6374L1266.75 164.512L1255.67 164.491L1255.81 90.7048Z" fill="#FFFBEE"/>
<path d="M778.953 163.577L767.007 163.555L767.146 90.8295L779.093 90.8524L778.953 163.577Z" fill="#FFFBEE"/>
<path d="M877.914 163.767L865.968 163.744L866.107 91.0192L779.093 90.8524L779.112 80.6192L866.127 80.786L866.254 14.4585L878.2 14.4814L877.914 163.767Z" fill="#FFFBEE"/>
<path d="M779.112 80.6192L767.166 80.5963L767.293 14.2689L779.239 14.2918L779.112 80.6192Z" fill="#FFFBEE"/>
</svg>
