<svg width="1351" height="177" viewBox="0 0 1351 177" fill="none" xmlns="http://www.w3.org/2000/svg">
<path d="M29.5696 118.951V172.857H0V118.951H29.5696ZM29.5696 118.951V91.6556H70.2883C88.0251 91.6556 96.8997 78.9155 96.8997 66.1878C96.8997 53.46 88.0251 40.9436 70.2883 40.9436H29.5696V13.6486H75.0612C110.087 13.6486 127.377 38.8928 127.377 66.1878C127.377 93.4827 110.087 118.951 75.0612 118.951H29.5696ZM0 91.6556V40.9312H29.5696V91.6556H0Z" fill="#FFFBEE"/>
<path d="M199.429 78.9258C195.787 78.0185 192.145 77.5586 188.963 77.5586C171.674 77.5586 158.711 89.1551 158.711 108.942V172.853H131.416V54.5894H158.711V72.1022H159.171C166.902 57.5476 182.6 48.6731 199.429 54.5894V78.9258Z" fill="#FFFBEE"/>
<path d="M257.711 176.497C223.145 176.497 197.889 152.161 197.889 113.493C197.889 74.8261 223.132 50.9496 257.711 50.9496C292.289 50.9496 317.532 75.0622 317.532 113.493C317.532 151.924 292.289 176.497 257.711 176.497ZM226.091 113.493C226.091 136.699 239.054 151.477 257.698 151.477C276.342 151.477 289.318 136.699 289.318 113.493C289.318 90.288 276.354 75.9696 257.698 75.9696C239.042 75.9696 226.091 90.7479 226.091 113.493Z" fill="#FFFBEE"/>
<path d="M311.022 54.5892H342.865L369.7 92.3491L393.812 54.5892H425.656L384.938 113.951L426.787 172.853H394.944L366.965 133.278L340.814 172.853H308.971L351.503 111.677L311.022 54.5892Z" fill="#FFFBEE"/>
<path d="M475.275 172.856H447.98V79.598H428.416V54.5775H475.275V172.843V172.856ZM461.628 31.8442C452.753 31.8442 445.706 24.5605 445.706 15.9221C445.706 7.28364 452.753 0 461.628 0C470.502 0 477.55 7.04748 477.55 15.9221C477.55 24.7967 470.502 31.8442 461.628 31.8442Z" fill="#FFFBEE"/>
<path d="M492.626 172.857V54.5914H519.921V72.1044H520.381C527.665 57.5496 536.303 50.9496 552.673 50.9496C567.228 50.9496 581.099 57.3134 588.159 72.5519H588.619C596.81 58.6807 609.09 50.9496 625.459 50.9496C646.154 50.9496 665.495 64.3734 665.495 96.2175V172.87H638.2V108.958C638.2 87.5791 629.561 77.1135 616.597 77.1135C603.633 77.1135 592.72 87.5791 592.72 108.958V172.87H565.425V108.958C565.425 87.5791 556.787 77.1135 543.823 77.1135C530.859 77.1135 519.946 87.5791 519.946 108.958V172.87H492.651L492.626 172.857Z" fill="#FFFBEE"/>
<path d="M746.88 91.2078C746.88 80.9785 737.334 75.9696 726.633 75.9696C715.931 75.9696 706.162 80.9785 706.162 91.2078H678.867C680.682 61.1912 703.427 50.9496 726.633 50.9496C749.838 50.9496 774.162 56.6297 774.162 90.5242V104.855H746.867V91.2078H746.88ZM713.445 176.497C691.607 176.497 674.554 164.217 674.554 141.471C674.554 117.135 694.565 104.855 720.729 104.855H746.88V126.457H720.729C707.541 126.457 702.756 132.821 702.756 139.197C702.756 145.573 707.529 151.937 720.729 151.937C740.056 151.937 746.88 145.113 746.88 131.242V126.469H774.174V172.868H746.88V157.853H746.42C743.014 167.635 729.814 176.497 713.445 176.497Z" fill="#FFFBEE"/>
<path d="M1055.9 110.538C1055.9 65.5068 1029.75 50.9522 1003.14 50.9522C976.524 50.9522 953.331 71.6468 950.137 105.305C949.752 108.885 949.603 112.489 949.677 116.094V116.23C950.821 153.071 973.33 176.052 1004.27 176.052C1031.34 176.052 1049.07 161.498 1055.9 133.072H1043.16C1038.38 153.319 1026.79 164.692 1004.95 164.692C981.521 164.692 963.561 146.048 962.417 116.243H1055.9V110.563V110.538ZM962.417 105.305C965.599 78.6942 981.981 62.3125 1003.82 62.3125C1025.66 62.3125 1039.75 73.6852 1042.25 105.305H962.417Z" fill="#FFFBEE"/>
<path d="M1141.93 95.2994C1141.93 75.5121 1137.85 61.405 1108.96 61.405C1086.67 61.405 1080.76 74.1449 1080.76 82.0996H1068.93C1070.74 61.1688 1087.35 50.9396 1110.55 50.9396C1133.76 50.9396 1153.77 56.6197 1153.77 90.5142V108.487H1141.93V95.2994ZM1100.09 176.499C1076.21 176.499 1063.69 162.852 1063.69 143.748C1063.69 113.956 1088.25 108.499 1115.32 108.499H1141.93V118.505H1112.83C1092.58 118.505 1076.43 122.83 1076.43 141.71C1076.43 160.59 1091.67 165.587 1103.95 165.587C1119.87 165.587 1141.93 154.438 1141.93 132.376V118.505H1153.77V172.87H1141.93V154.214H1141.47C1131.69 170.359 1118.05 176.499 1100.09 176.499Z" fill="#FFFBEE"/>
<path d="M1187.03 172.858H1175.2V4.5517H1187.03V172.858Z" fill="#FFFBEE"/>
<path d="M1207.48 54.5901V30.2537L1219.31 24.7973V54.5901H1207.48ZM1219.31 54.5901H1248.42V65.0555H1219.31V54.5901ZM1219.31 149.885C1219.31 161.941 1227.72 165.583 1236.6 165.583C1241.37 165.583 1246.38 164.452 1249.79 163.085V172.866C1245.01 174.681 1240 176.508 1233.18 176.508C1219.31 176.508 1207.48 167.87 1207.48 150.121V65.0555H1219.31V149.897V149.885Z" fill="#FFFBEE"/>
<path d="M1339.12 94.1678C1339.12 72.7892 1324.11 62.3236 1306.82 62.3236C1289.53 62.3236 1271.79 72.7892 1271.79 94.1678V172.858H1259.97V4.5517H1271.79V69.831H1272.25C1279.98 57.5507 1294.31 50.9507 1309.78 50.9507C1333.66 50.9507 1350.94 64.3745 1350.94 96.2062V172.858H1339.12V94.1678Z" fill="#FFFBEE"/>
<path d="M830.719 172.858H817.979V95.2991H830.719V172.858Z" fill="#FFFBEE"/>
<path d="M936.257 172.858H923.517V95.2991H830.719V84.3857H923.517V13.6497H936.257V172.858Z" fill="#FFFBEE"/>
<path d="M830.719 84.3857H817.979V13.6497H830.719V84.3857Z" fill="#FFFBEE"/>
</svg>
